<svg width="50" height="48" viewBox="0 0 50 48" fill="none" xmlns="http://www.w3.org/2000/svg">
<path fill-rule="evenodd" clip-rule="evenodd" d="M25.7918 0.0392932C31.2611 -0.312551 36.5207 1.7212 40.7324 5.22812C45.4096 9.12263 49.5856 14.0944 49.9667 20.1688C50.3665 26.5395 47.1157 32.4691 42.7328 37.1097C38.2063 41.9023 32.3757 45.4341 25.7918 45.7649C18.887 46.1119 11.941 43.7966 7.05818 38.9024C2.18038 34.0131 -0.939608 26.9709 0.255492 20.1688C1.33869 14.0035 7.74123 10.9093 12.6572 7.03422C16.7069 3.84196 20.6458 0.370338 25.7918 0.0392932Z" fill="#FADFE9" fill-opacity="0.51"/>
<path d="M25.1694 32.0525C25.3219 32.0533 25.4685 31.9935 25.5769 31.8862C25.6853 31.779 25.7466 31.6331 25.7474 31.4806C25.7482 31.3281 25.6884 31.1815 25.5811 31.0731C25.4739 30.9648 25.328 30.9034 25.1755 30.9026L19.5813 30.8426C19.5057 30.8418 19.4308 30.8559 19.3608 30.884C19.2907 30.9122 19.2269 30.9538 19.1729 31.0067C19.1189 31.0595 19.0759 31.1224 19.0463 31.1918C19.0166 31.2613 19.0009 31.3359 19.0001 31.4114C18.9993 31.4869 19.0134 31.5618 19.0415 31.6319C19.0697 31.7019 19.1113 31.7658 19.1642 31.8197C19.217 31.8737 19.2799 31.9167 19.3493 31.9464C19.4188 31.976 19.4934 31.9917 19.5689 31.9925L21.1692 32.0097C21.5527 32.0135 21.9252 32.1382 22.2337 32.3661C22.5422 32.5939 22.7709 32.9133 22.8874 33.2787L19.555 33.2429H19.5487C19.3962 33.2421 19.2496 33.3019 19.1412 33.4092C19.0328 33.5165 18.9715 33.6624 18.9707 33.8149C18.9699 33.9673 19.0297 34.1139 19.137 34.2223C19.2442 34.3307 19.3901 34.392 19.5426 34.3928L22.8742 34.4286C22.7483 34.7902 22.5125 35.1034 22.1998 35.3243C21.887 35.5452 21.513 35.6627 21.1302 35.6604L19.5293 35.6432C19.414 35.6411 19.3008 35.674 19.2047 35.7377C19.1086 35.8014 19.0342 35.8929 18.9913 35.9999C18.9476 36.1064 18.9369 36.2235 18.9605 36.3362C18.9841 36.4489 19.0411 36.5518 19.1239 36.6318L23.0843 40.4552C23.1384 40.5085 23.2026 40.5507 23.2731 40.5791C23.3436 40.6075 23.419 40.6217 23.4951 40.6207C23.5711 40.6198 23.6461 40.6038 23.7159 40.5737C23.7857 40.5436 23.8489 40.4999 23.9017 40.4452C23.9545 40.3905 23.9959 40.3259 24.0236 40.2551C24.0512 40.1843 24.0646 40.1087 24.0629 40.0327C24.0611 39.9567 24.0443 39.8818 24.0135 39.8123C23.9826 39.7429 23.9382 39.6802 23.883 39.628L20.9625 36.8083L21.1341 36.81C21.8195 36.8093 22.4839 36.5738 23.0167 36.1428C23.5496 35.7117 23.9187 35.1111 24.0625 34.441L25.1371 34.4525H25.1434C25.2959 34.4533 25.4424 34.3935 25.5508 34.2863C25.6592 34.179 25.7205 34.0331 25.7213 33.8806C25.7221 33.7281 25.6623 33.5816 25.5551 33.4732C25.4478 33.3648 25.3019 33.3034 25.1494 33.3026L24.0747 33.2911C23.9897 32.8342 23.7983 32.4038 23.5162 32.0345L25.1628 32.0521L25.1694 32.0525Z" fill="#D7206A"/>
<path d="M10.626 5.64377C10.744 5.74036 10.8955 5.78613 11.0472 5.77102C11.1989 5.75591 11.3384 5.68114 11.4351 5.56318C11.5036 5.47943 11.7387 5.27293 12.1855 5.02992C12.2521 4.99435 12.311 4.94602 12.3589 4.88768C12.4069 4.82933 12.4428 4.76212 12.4648 4.68988C12.4867 4.61763 12.4942 4.54177 12.4869 4.46663C12.4795 4.39148 12.4574 4.31852 12.4219 4.25192C12.3863 4.18531 12.338 4.12636 12.2796 4.07843C12.2213 4.03051 12.1541 3.99454 12.0818 3.97259C12.0096 3.95064 11.9337 3.94313 11.8586 3.9505C11.7834 3.95786 11.7105 3.97996 11.6439 4.01552L11.6361 4.01974C10.9716 4.38109 10.6675 4.68543 10.5453 4.83424C10.4975 4.89264 10.4616 4.95989 10.4397 5.03216C10.4178 5.10442 10.4104 5.18029 10.4178 5.25542C10.4253 5.33056 10.4475 5.40349 10.4831 5.47006C10.5187 5.53663 10.5671 5.59552 10.6255 5.64338L10.626 5.64377Z" fill="#D7206A"/>
<path d="M13.9875 4.28883C14.0408 4.28882 14.0939 4.28137 14.1452 4.2667C15.7791 3.80166 17.8144 3.54552 19.8764 3.54552C20.0288 3.54552 20.1751 3.48495 20.2829 3.37713C20.3907 3.2693 20.4513 3.12306 20.4513 2.97058C20.4513 2.81809 20.3907 2.67185 20.2829 2.56403C20.1751 2.4562 20.0288 2.39563 19.8764 2.39563C17.6796 2.39563 15.5889 2.6602 13.8304 3.16069C13.6968 3.19852 13.5815 3.28339 13.5056 3.39964C13.4297 3.51589 13.3985 3.65567 13.4176 3.79316C13.4367 3.93066 13.505 4.05659 13.6097 4.14769C13.7145 4.2388 13.8486 4.28893 13.9875 4.28883Z" fill="#D7206A"/>
<path d="M22.8567 27.0959C21.5679 27.035 20.2824 27.2703 19.0988 27.7837C17.9151 28.2971 16.8649 29.0749 16.0287 30.0573C15.1925 31.0398 14.5925 32.2009 14.2749 33.4514C13.9574 34.7018 13.9306 36.0085 14.1966 37.2709C14.4627 38.5333 15.0145 39.718 15.8097 40.734C16.6049 41.7499 17.6224 42.5701 18.784 43.1316C19.9456 43.6931 21.2204 43.9809 22.5106 43.9729C23.8007 43.9649 25.0719 43.6614 26.2264 43.0856C26.309 43.0436 26.3801 42.9823 26.4339 42.9069C26.4876 42.8315 26.5223 42.7442 26.5351 42.6525C26.5479 42.5608 26.5383 42.4673 26.5072 42.3801C26.4761 42.2929 26.4244 42.2145 26.3565 42.1515C26.2696 42.0714 26.1603 42.0198 26.0433 42.0036C25.9262 41.9874 25.8071 42.0075 25.7017 42.061C24.1434 42.8341 22.36 43.0249 20.6734 42.5989C18.9868 42.173 17.5079 41.1583 16.5035 39.738C15.4991 38.3176 15.0353 36.5851 15.1958 34.853C15.3562 33.1208 16.1304 31.503 17.3787 30.2914C18.6269 29.0797 20.2671 28.3541 22.0033 28.2452C23.7394 28.1364 25.4574 28.6516 26.8472 29.6978C28.2369 30.7441 29.2071 32.2525 29.5827 33.9511C29.9582 35.6497 29.7144 37.4265 28.8953 38.9612C28.8355 39.0703 28.8137 39.1962 28.8332 39.319C28.8526 39.4419 28.9123 39.5548 29.0029 39.6402L29.0284 39.6638C29.091 39.722 29.1661 39.7651 29.248 39.7896C29.3298 39.8142 29.4162 39.8197 29.5005 39.8057C29.5849 39.7916 29.6648 39.7584 29.7343 39.7086C29.8037 39.6588 29.8609 39.5937 29.9012 39.5184C30.5757 38.2618 30.9207 36.8548 30.9041 35.4287C30.8875 34.0027 30.5099 32.6041 29.8064 31.3635C29.1029 30.123 28.0965 29.0809 26.8812 28.3346C25.6659 27.5883 24.2813 27.1621 22.8567 27.0959Z" fill="#D7206A"/>
<path d="M44.3285 23.0527C42.1276 22.1723 39.2139 21.6875 36.1237 21.6875C34.6596 21.6847 33.1976 21.8007 31.7522 22.0343V5.09547C31.7522 3.63702 30.4483 2.31224 28.0807 1.36521C25.8799 0.484872 22.9661 0 19.8761 0C16.786 0 13.8723 0.484872 11.6715 1.36521C9.30388 2.31224 8 3.63702 8 5.09547V32.2183C8 33.4953 9.0166 34.6856 10.8722 35.5948C10.8833 37.7641 11.5032 39.8867 12.6615 41.7209C13.8197 43.5552 15.4698 45.0273 17.4237 45.9697C19.3776 46.9121 21.5569 47.287 23.7134 47.0515C25.87 46.816 27.917 45.9798 29.6215 44.6379C31.5471 45.1625 33.7874 45.4398 36.1238 45.4398C39.214 45.4398 42.1277 44.9549 44.3286 44.0746C46.6961 43.1276 48 41.8027 48 40.3443V26.7829C48 25.3245 46.6961 23.9996 44.3285 23.0527ZM12.0985 2.43279C14.1668 1.60554 16.9289 1.14989 19.8762 1.14989C22.8235 1.14989 25.5855 1.60554 27.6538 2.43279C29.5276 3.18243 30.6024 4.15294 30.6024 5.09547C30.6024 6.03799 29.5276 7.0085 27.6538 7.75852C25.5855 8.58578 22.8234 9.04142 19.8762 9.04142C16.929 9.04142 14.1668 8.58539 12.0985 7.75852C10.2246 7.0085 9.14989 6.03809 9.14989 5.09547C9.14989 4.15284 10.2246 3.18243 12.0985 2.43279ZM9.14989 11.8656C9.51707 12.1916 9.91872 12.4765 10.3477 12.7154C10.4126 12.7559 10.4849 12.7831 10.5604 12.7953C10.6359 12.8075 10.713 12.8044 10.7874 12.7864C10.8617 12.7683 10.9316 12.7356 10.9931 12.6902C11.0546 12.6447 11.1064 12.5874 11.1455 12.5216C11.1845 12.4559 11.21 12.383 11.2205 12.3072C11.231 12.2315 11.2262 12.1544 11.2065 12.0805C11.1868 12.0066 11.1525 11.9374 11.1057 11.8769C11.0588 11.8165 11.0004 11.766 10.9338 11.7284C10.9268 11.7243 10.9197 11.7203 10.9125 11.7165C9.77879 11.0744 9.14989 10.3374 9.14989 9.61656V7.34552C9.76221 7.90034 10.6094 8.40131 11.6714 8.8261C13.8723 9.70644 16.786 10.1913 19.8762 10.1913C22.9663 10.1913 25.88 9.70644 28.0808 8.8261C29.1429 8.40131 29.9901 7.90034 30.6024 7.34552V9.61656C30.6024 10.5592 29.5276 11.5297 27.6538 12.2792C25.5856 13.1065 22.8234 13.5621 19.8762 13.5621C18.4158 13.5664 16.9576 13.4472 15.5172 13.206C15.4356 13.1916 15.3517 13.1951 15.2715 13.2165C15.1914 13.2379 15.1169 13.2765 15.0532 13.3297C14.9896 13.3829 14.9383 13.4494 14.9031 13.5245C14.8679 13.5996 14.8495 13.6816 14.8493 13.7645V13.7788C14.8493 13.9127 14.8966 14.0424 14.9829 14.1448C15.0692 14.2473 15.1889 14.3159 15.3209 14.3386C16.8261 14.5913 18.3499 14.7163 19.8762 14.7123C22.9662 14.7123 25.8801 14.2274 28.0808 13.3472C29.1429 12.9223 29.9901 12.4213 30.6024 11.8665V14.1376C30.6024 15.0801 29.5276 16.0506 27.6538 16.8001C25.5855 17.6275 22.8234 18.0831 19.8762 18.0831C16.929 18.0831 14.1666 17.6276 12.0985 16.8003C10.2246 16.05 9.14989 15.0799 9.14989 14.1364V11.8656ZM9.14989 16.3862C9.76221 16.941 10.6094 17.4421 11.6714 17.8669C13.8721 18.747 16.786 19.2319 19.8762 19.2319C22.9664 19.2319 25.88 18.747 28.0808 17.8667C29.1429 17.4419 29.9901 16.9408 30.6024 16.386V18.657C30.6024 19.5996 29.5276 20.5701 27.6538 21.3196C25.5855 22.1469 22.8234 22.6025 19.8762 22.6025C16.929 22.6025 14.1668 22.1469 12.0985 21.3196C10.2246 20.5703 9.14989 19.5995 9.14989 18.6569V16.3862ZM9.14989 20.9065C9.76221 21.4613 10.6094 21.9623 11.6714 22.3872C13.8723 23.2675 16.786 23.7523 19.8762 23.7523C22.9663 23.7523 25.88 23.2675 28.0808 22.3872C29.1429 21.9623 29.9901 21.4613 30.6024 20.9065V22.2537C28.4734 22.719 26.705 23.4503 25.5881 24.3681C23.7691 23.8587 21.853 23.8022 20.0071 24.2035C18.1612 24.6047 16.4415 25.4515 14.9981 26.67C11.4885 25.9784 9.14989 24.5891 9.14989 23.1773V20.9065ZM9.14989 25.4191C10.1721 26.3475 11.8381 27.118 13.9909 27.6278C13.2305 28.442 12.5909 29.3612 12.0917 30.3572C10.2398 29.6145 9.14989 28.6378 9.14989 27.6978V25.4191ZM10.9337 34.3276C9.79134 33.6815 9.15008 32.9341 9.15008 32.2183V29.9528C9.75378 30.4978 10.586 30.9896 11.6287 31.4104C11.2707 32.3483 11.037 33.329 10.9337 34.3276ZM29.7803 42.0349C29.6725 41.9271 29.5262 41.8665 29.3738 41.8666C29.2213 41.8666 29.075 41.9271 28.9672 42.035C28.8594 42.1428 28.7988 42.2891 28.7988 42.4416C28.7988 42.594 28.8594 42.7403 28.9673 42.8481L29.4227 43.3035C27.6586 44.8897 25.4051 45.825 23.0363 45.9542V45.3049C23.0363 45.1525 22.9757 45.0062 22.8679 44.8984C22.7601 44.7906 22.6138 44.73 22.4613 44.73C22.3089 44.73 22.1626 44.7906 22.0548 44.8984C21.947 45.0062 21.8864 45.1525 21.8864 45.3049V45.9542C19.5177 45.825 17.2644 44.8898 15.5004 43.3038L15.9558 42.8485C16.0637 42.7407 16.1242 42.5944 16.1242 42.4419C16.1242 42.2894 16.0637 42.1431 15.9558 42.0353C15.848 41.9275 15.7017 41.8669 15.5492 41.8669C15.3967 41.8669 15.2505 41.9275 15.1427 42.0353L14.6873 42.4908C13.1013 40.7267 12.1661 38.4734 12.037 36.1047H12.6863C12.8388 36.1047 12.985 36.0442 13.0928 35.9363C13.2007 35.8285 13.2612 35.6823 13.2612 35.5298C13.2612 35.3773 13.2007 35.2311 13.0928 35.1232C12.985 35.0154 12.8388 34.9548 12.6863 34.9548H12.0374C12.1665 32.5862 13.1017 30.3329 14.6877 28.5688L15.1431 29.0244C15.251 29.1322 15.3972 29.1928 15.5497 29.1928C15.7022 29.1928 15.8484 29.1322 15.9563 29.0244C16.0641 28.9166 16.1247 28.7704 16.1247 28.6179C16.1247 28.4654 16.0641 28.3191 15.9563 28.2113L15.5008 27.7557C17.2647 26.1698 19.5179 25.2346 21.8864 25.1052V25.7544C21.8864 25.9068 21.947 26.0531 22.0548 26.1609C22.1626 26.2687 22.3089 26.3293 22.4613 26.3293C22.6138 26.3293 22.7601 26.2687 22.8679 26.1609C22.9757 26.0531 23.0363 25.9068 23.0363 25.7544V25.105C25.405 25.2342 27.6583 26.1694 29.4223 27.7554L28.9668 28.2109C28.9134 28.2643 28.871 28.3277 28.8421 28.3974C28.8133 28.4672 28.7984 28.542 28.7984 28.6175C28.7984 28.693 28.8133 28.7677 28.8422 28.8375C28.8711 28.9073 28.9134 28.9706 28.9668 29.024C29.0202 29.0774 29.0836 29.1198 29.1534 29.1487C29.2231 29.1775 29.2979 29.1924 29.3734 29.1924C29.4489 29.1924 29.5237 29.1775 29.5934 29.1486C29.6632 29.1197 29.7266 29.0774 29.7799 29.024L30.2354 28.5684C31.8214 30.3325 32.7565 32.5858 32.8857 34.9545H32.2365C32.084 34.9545 31.9378 35.015 31.8299 35.1229C31.7221 35.2307 31.6615 35.3769 31.6615 35.5294C31.6615 35.6819 31.7221 35.8281 31.8299 35.936C31.9378 36.0438 32.084 36.1044 32.2365 36.1044H32.8857C32.7565 38.473 31.8214 40.7263 30.2354 42.4904L29.7803 42.0349ZM46.8501 40.3441C46.8501 41.2867 45.7753 42.2572 43.9015 43.0068C41.8332 43.834 39.0711 44.2897 36.1238 44.2897C34.2874 44.3002 32.4555 44.1067 30.6618 43.7128C31.5351 42.8379 32.2636 41.8295 32.82 40.7256C33.8935 40.854 34.9738 40.9187 36.055 40.9194C39.1451 40.9194 42.1277 40.4345 44.3286 39.5541C45.3906 39.1293 46.2378 38.6283 46.8501 38.0735V40.3441ZM46.8501 35.8236C46.8501 36.7662 45.7753 37.7367 43.9015 38.4864C41.8332 39.3136 39.0712 39.7692 36.1205 39.7692C35.1798 39.7736 34.2396 39.725 33.3044 39.6235C33.7055 38.5643 33.9481 37.4517 34.0243 36.3217C34.7108 36.3725 35.4128 36.3983 36.088 36.3983C39.178 36.3983 42.1275 35.9135 44.3289 35.0331C45.3909 34.6083 46.2381 34.1074 46.8504 33.5526L46.8501 35.8236ZM46.8501 31.3033C46.8501 32.2458 45.7753 33.2163 43.9015 33.9658C41.8332 34.7931 39.0711 35.2486 36.1223 35.2486C35.4323 35.2496 34.7364 35.2229 34.0459 35.1697C34.011 34.0044 33.7994 32.8511 33.4185 31.7492C34.2978 31.8346 35.1983 31.8783 36.0587 31.8783C39.1488 31.8783 42.1277 31.3933 44.3284 30.513C45.3904 30.0882 46.2376 29.5871 46.8499 29.0323L46.8501 31.3033ZM43.9015 29.4455C41.8332 30.2729 39.0711 30.7285 36.1205 30.7285C35.0509 30.7337 33.9821 30.6701 32.9206 30.5382C31.6851 27.9644 29.5483 25.9332 26.9152 24.8297C28.8658 23.6161 32.3734 22.8374 36.1239 22.8374C39.0712 22.8374 41.8333 23.293 43.9016 24.1203C45.7754 24.8698 46.8502 25.8403 46.8502 26.7829C46.8502 27.7256 45.7754 28.6962 43.9015 29.4455Z" fill="#D7206A"/>
</svg>
