<svg xmlns="http://www.w3.org/2000/svg" version="1.1" xmlns:xlink="http://www.w3.org/1999/xlink" xmlns:svgjs="http://svgjs.com/svgjs" width="512" height="512" x="0" y="0" viewBox="0 0 455.31954 455" style="enable-background:new 0 0 512 512" xml:space="preserve" class=""><g transform="matrix(0.9100000000000001,0,0,0.9100000000000001,20.489455261230432,19.300957031249965)"><path xmlns="http://www.w3.org/2000/svg" d="m113.113281 112.464844h50.136719c3.3125 0 6-2.683594 6-6 0-3.3125-2.6875-6-6-6h-50.136719c-3.3125 0-6 2.6875-6 6 0 3.316406 2.6875 6 6 6zm0 0" fill="#d7206a" data-original="#000000" class=""></path><path xmlns="http://www.w3.org/2000/svg" d="m312.574219 183.109375c3.3125 0 6-2.683594 6-6 0-3.3125-2.6875-6-6-6h-74.644531c-3.3125 0-6 2.6875-6 6 0 3.316406 2.6875 6 6 6zm0 0" fill="#d7206a" data-original="#000000" class=""></path><path xmlns="http://www.w3.org/2000/svg" d="m189.179688 171.109375c-3.3125 0-6 2.6875-6 6 0 3.316406 2.6875 6 6 6h23.375c3.316406 0 6-2.683594 6-6 0-3.3125-2.683594-6-6-6zm0 0" fill="#d7206a" data-original="#000000" class=""></path><path xmlns="http://www.w3.org/2000/svg" d="m113.113281 183.109375h50.277344c3.3125 0 6-2.683594 6-6 0-3.3125-2.6875-6-6-6h-50.277344c-3.3125 0-6 2.6875-6 6 0 3.316406 2.6875 6 6 6zm0 0" fill="#d7206a" data-original="#000000" class=""></path><path xmlns="http://www.w3.org/2000/svg" d="m218.375 241.761719h-105.261719c-3.3125 0-6 2.683593-6 6 0 3.3125 2.6875 6 6 6h105.261719c3.3125 0 6-2.6875 6-6 0-3.316407-2.6875-6-6-6zm0 0" fill="#d7206a" data-original="#000000" class=""></path><path xmlns="http://www.w3.org/2000/svg" d="m440.453125 129.292969c3.316406 0 6-2.6875 6-6v-79.589844c-.023437-24.035156-19.503906-43.515625-43.539063-43.542969-.5 0-.992187.019532-1.488281.039063-.21875-.027344-.4375-.039063-.65625-.039063h-289.214843c-26.78125.085938-48.546876 21.636719-48.898438 48.417969l-2.179688 266.734375h-54.476562c-3.3125 0-6 2.6875-6 6v39.871094c0 35.847656 27.511719 65.253906 62.128906 67.425781.421875.09375.855469.140625 1.289063.140625h237.980469c.300781 0 .597656-.023438.894531-.070312.945312.039062 1.890625.070312 2.847656.070312 32.6875 0 60.464844-24.691406 65.425781-57.125 47.609375-3.4375 84.539063-42.960938 84.753906-90.691406.210938-47.734375-36.367187-87.578125-83.945312-91.441406v-60.199219zm-6-85.589844v73.589844h-63.078125v-73.589844c.097656-17.351563 14.191406-31.363281 31.539062-31.363281 17.351563 0 31.441407 14.011718 31.539063 31.363281zm-368.21875 373.058594c-29.90625 0-54.234375-24.933594-54.234375-55.574219v-33.871094h226.867188v33.871094c-.054688 22.074219 10.621093 42.796875 28.625 55.566406zm238.871094 0c-29.902344 0-54.238281-24.929688-54.238281-55.570313v-39.871094c0-3.3125-2.683594-6-6-6h-172.390626l2.179688-266.628906c.265625-20.207031 16.691406-36.464844 36.898438-36.527344h261.390624c-8.664062 8.203126-13.574218 19.609376-13.570312 31.539063v145.582031c-35.589844 1.726563-66.921875 24.011719-80.222656 57.070313-.648438-2.695313-3.058594-4.597657-5.828125-4.601563h-29.554688c-3.3125 0-6 2.6875-6 6s2.6875 6 6 6h29.554688c1.308593 0 2.585937-.429687 3.625-1.226562-8.671875 26.871094-4.425781 56.242187 11.503906 79.558594 15.925781 23.316406 41.742187 37.953124 69.929687 39.648437-4.855468 25.699219-27.140624 45.027344-53.28125 45.027344zm114.929687-80.113281c-14.613281 14.605468-34.34375 22.941406-55 23.230468h-.007812c-.398438.007813-.800782.03125-1.195313.03125-37.875-.023437-70.457031-26.792968-77.832031-63.941406-7.371094-37.152344 12.519531-74.335938 47.515625-88.824219 34.992187-14.484375 75.347656-2.234375 96.386719 29.257813 21.039062 31.492187 16.910156 73.460937-9.871094 100.246094zm0 0" fill="#d7206a" data-original="#000000" class=""></path><path xmlns="http://www.w3.org/2000/svg" d="m298.167969 112.464844h14.398437c3.316406 0 6-2.683594 6-6 0-3.3125-2.683594-6-6-6h-14.398437c-3.3125 0-6 2.6875-6 6 0 3.316406 2.6875 6 6 6zm0 0" fill="#d7206a" data-original="#000000" class=""></path><path xmlns="http://www.w3.org/2000/svg" d="m188.191406 112.464844h84.691406c3.316407 0 6-2.683594 6-6 0-3.3125-2.683593-6-6-6h-84.691406c-3.3125 0-6 2.6875-6 6 0 3.316406 2.6875 6 6 6zm0 0" fill="#d7206a" data-original="#000000" class=""></path><path xmlns="http://www.w3.org/2000/svg" d="m334.515625 228.683594h-.066406c-3.3125-.015625-6.015625 2.65625-6.03125 5.96875-.019531 3.316406 2.65625 6.015625 5.96875 6.03125l17.011719.183594c8.460937.089843 15.898437 5.625 18.414062 13.707031l-35.574219-.382813h-.0625c-3.316406-.015625-6.015625 2.65625-6.03125 5.96875-.019531 3.3125 2.652344 6.015625 5.964844 6.03125l35.574219.382813c-2.6875 8.023437-10.238282 13.398437-18.699219 13.308593l-17.011719-.183593c-2.460937-.023438-4.683594 1.449219-5.617187 3.722656-.933594 2.277344-.386719 4.890625 1.382812 6.597656l42.089844 40.632813c1.535156 1.527344 3.773437 2.109375 5.859375 1.523437 2.082031-.585937 3.691406-2.25 4.203125-4.355469.511719-2.101562-.148437-4.320312-1.726563-5.800781l-31.242187-30.160156 1.929687.023437h.34375c14.960938-.007812 27.855469-10.527343 30.867188-25.179687l11.5.121094h.066406c3.3125.019531 6.011719-2.652344 6.03125-5.96875.015625-3.3125-2.65625-6.011719-5.96875-6.03125l-11.5-.121094c-.894531-4.945313-2.972656-9.605469-6.054687-13.574219l17.699219.1875h.066406c3.3125.019532 6.011718-2.652344 6.03125-5.964844.015625-3.316406-2.65625-6.015624-5.96875-6.035156l-42.441406-.453125zm0 0" fill="#d7206a" data-original="#000000" class=""></path></g></svg>