<svg xmlns="http://www.w3.org/2000/svg" version="1.1" xmlns:xlink="http://www.w3.org/1999/xlink" xmlns:svgjs="http://svgjs.com/svgjs" width="512" height="512" x="0" y="0" viewBox="0 0 16 16" style="enable-background:new 0 0 512 512" xml:space="preserve" class=""><circle r="8" cx="8" cy="8" fill="#d7206a" shape="circle"></circle><g transform="matrix(0.55,0,0,0.55,3.6000002950429906,3.5999999999999996)"><path xmlns="http://www.w3.org/2000/svg" d="m12 15.5a3.5 3.5 0 0 0 0-7h-3a.4951.4951 0 0 0 -.5.5v3a3.5038 3.5038 0 0 0 3.5 3.5z" fill="#ffffff" data-original="#000000" class=""></path><path xmlns="http://www.w3.org/2000/svg" d="m12 .5a3.5038 3.5038 0 0 0 -3.5 3.5v3a.4951.4951 0 0 0 .5.5h3a3.5 3.5 0 0 0 0-7z" fill="#ffffff" data-original="#000000" class=""></path><path xmlns="http://www.w3.org/2000/svg" d="m4 15.5a3.5038 3.5038 0 0 0 3.5-3.5v-3a.4951.4951 0 0 0 -.5-.5h-3a3.5 3.5 0 0 0 0 7z" fill="#ffffff" data-original="#000000" class=""></path><path xmlns="http://www.w3.org/2000/svg" d="m4 7.5h3a.4951.4951 0 0 0 .5-.5v-3a3.5 3.5 0 1 0 -3.5 3.5z" fill="#ffffff" data-original="#000000" class=""></path></g></svg>