<svg width="20" height="20" viewBox="0 0 20 20" fill="none" xmlns="http://www.w3.org/2000/svg">
<path fill-rule="evenodd" clip-rule="evenodd" d="M2 11H8C8.55 11 9 10.55 9 10V2C9 1.45 8.55 1 8 1H2C1.45 1 1 1.45 1 2V10C1 10.55 1.45 11 2 11ZM2 19H8C8.55 19 9 18.55 9 18V14C9 13.45 8.55 13 8 13H2C1.45 13 1 13.45 1 14V18C1 18.55 1.45 19 2 19ZM12 19H18C18.55 19 19 18.55 19 18V10C19 9.45 18.55 9 18 9H12C11.45 9 11 9.45 11 10V18C11 18.55 11.45 19 12 19ZM11 2V6C11 6.55 11.45 7 12 7H18C18.55 7 19 6.55 19 6V2C19 1.45 18.55 1 18 1H12C11.45 1 11 1.45 11 2Z" fill="white"/>
<path d="M2 11.5H8V10.5H2V11.5ZM8 11.5C8.82614 11.5 9.5 10.8261 9.5 10H8.5C8.5 10.2739 8.27386 10.5 8 10.5V11.5ZM9.5 10V2H8.5V10H9.5ZM9.5 2C9.5 1.17386 8.82614 0.5 8 0.5V1.5C8.27386 1.5 8.5 1.72614 8.5 2H9.5ZM8 0.5H2V1.5H8V0.5ZM2 0.5C1.17386 0.5 0.5 1.17386 0.5 2H1.5C1.5 1.72614 1.72614 1.5 2 1.5V0.5ZM0.5 2V10H1.5V2H0.5ZM0.5 10C0.5 10.8261 1.17386 11.5 2 11.5V10.5C1.72614 10.5 1.5 10.2739 1.5 10H0.5ZM2 19.5H8V18.5H2V19.5ZM8 19.5C8.82614 19.5 9.5 18.8261 9.5 18H8.5C8.5 18.2739 8.27386 18.5 8 18.5V19.5ZM9.5 18V14H8.5V18H9.5ZM9.5 14C9.5 13.1739 8.82614 12.5 8 12.5V13.5C8.27386 13.5 8.5 13.7261 8.5 14H9.5ZM8 12.5H2V13.5H8V12.5ZM2 12.5C1.17386 12.5 0.5 13.1739 0.5 14H1.5C1.5 13.7261 1.72614 13.5 2 13.5V12.5ZM0.5 14V18H1.5V14H0.5ZM0.5 18C0.5 18.8261 1.17386 19.5 2 19.5V18.5C1.72614 18.5 1.5 18.2739 1.5 18H0.5ZM12 19.5H18V18.5H12V19.5ZM18 19.5C18.8261 19.5 19.5 18.8261 19.5 18H18.5C18.5 18.2739 18.2739 18.5 18 18.5V19.5ZM19.5 18V10H18.5V18H19.5ZM19.5 10C19.5 9.17386 18.8261 8.5 18 8.5V9.5C18.2739 9.5 18.5 9.72614 18.5 10H19.5ZM18 8.5H12V9.5H18V8.5ZM12 8.5C11.1739 8.5 10.5 9.17386 10.5 10H11.5C11.5 9.72614 11.7261 9.5 12 9.5V8.5ZM10.5 10V18H11.5V10H10.5ZM10.5 18C10.5 18.8261 11.1739 19.5 12 19.5V18.5C11.7261 18.5 11.5 18.2739 11.5 18H10.5ZM10.5 2V6H11.5V2H10.5ZM10.5 6C10.5 6.82614 11.1739 7.5 12 7.5V6.5C11.7261 6.5 11.5 6.27386 11.5 6H10.5ZM12 7.5H18V6.5H12V7.5ZM18 7.5C18.8261 7.5 19.5 6.82614 19.5 6H18.5C18.5 6.27386 18.2739 6.5 18 6.5V7.5ZM19.5 6V2H18.5V6H19.5ZM19.5 2C19.5 1.17386 18.8261 0.5 18 0.5V1.5C18.2739 1.5 18.5 1.72614 18.5 2H19.5ZM18 0.5H12V1.5H18V0.5ZM12 0.5C11.1739 0.5 10.5 1.17386 10.5 2H11.5C11.5 1.72614 11.7261 1.5 12 1.5V0.5Z" fill="white"/>
</svg>
