<svg width="38" height="38" viewBox="0 0 38 38" fill="none" xmlns="http://www.w3.org/2000/svg">
<circle cx="19" cy="19" r="19" fill="#D7206A"/>
<g clip-path="url(#clip0_2230_144)">
<path d="M19.5859 10.1979V9H18.4141V10.1979C13.0316 10.4666 9 14.4284 9 19.5859L9.00059 20.5301L9.84746 20.1107C9.85773 20.1049 10.9548 19.5859 11.9688 19.5859C12.7246 19.5859 13.6184 20.3086 13.8988 20.5867L14.313 20.9964L14.7262 20.5867C15.0066 20.3086 15.9004 19.5859 16.6562 19.5859C17.2969 19.5859 18.0327 20.103 18.4141 20.4307V27.2422C18.4141 28.2115 19.2026 29 20.1719 29C21.1412 29 21.9297 28.2115 21.9297 27.2422V26.0703H20.7578V27.2422C20.7578 27.5655 20.4952 27.8281 20.1719 27.8281C19.8486 27.8281 19.5859 27.5655 19.5859 27.2422V20.4307C19.9673 20.103 20.7031 19.5859 21.3438 19.5859C22.0996 19.5859 22.9934 20.3086 23.2738 20.5867L23.688 20.9964L24.1012 20.5867C24.3816 20.3086 25.3144 19.5859 26.0703 19.5859C27.0843 19.5859 28.1423 20.1049 28.1526 20.1107L29 20.5307V19.5859C29 14.4284 24.9684 10.4666 19.5859 10.1979Z" fill="white"/>
</g>
<defs>
<clipPath id="clip0_2230_144">
<rect width="20" height="20" fill="white" transform="translate(9 9)"/>
</clipPath>
</defs>
</svg>
