<svg xmlns="http://www.w3.org/2000/svg" version="1.1" xmlns:xlink="http://www.w3.org/1999/xlink" xmlns:svgjs="http://svgjs.com/svgjs" width="512" height="512" x="0" y="0" viewBox="0 0 512 512" style="enable-background:new 0 0 512 512" xml:space="preserve" class=""><g>
<g>
	<g>
		<rect y="474.5" width="105.5" height="37.5" fill="#ffffff" data-original="#000000" class=""></rect>
	</g>
</g>
<g>
	<g>
		<rect y="407" width="105.5" height="37.5" fill="#ffffff" data-original="#000000" class=""></rect>
	</g>
</g>
<g>
	<g>
		<rect x="406.5" y="407" width="105.5" height="37.5" fill="#ffffff" data-original="#000000" class=""></rect>
	</g>
</g>
<g>
	<g>
		<rect x="406.5" y="474.5" width="105.5" height="37.5" fill="#ffffff" data-original="#000000" class=""></rect>
	</g>
</g>
<g>
	<g>
		<rect x="271" y="339.5" width="105.5" height="37.5" fill="#ffffff" data-original="#000000" class=""></rect>
	</g>
</g>
<g>
	<g>
		<polygon points="376,272 271,272 271,309.5 376.5,309.5 		" fill="#ffffff" data-original="#000000" class=""></polygon>
	</g>
</g>
<g>
	<g>
		<rect x="135.5" y="272" width="105.5" height="37.5" fill="#ffffff" data-original="#000000" class=""></rect>
	</g>
</g>
<g>
	<g>
		<rect x="135.5" y="339.5" width="105.5" height="37.5" fill="#ffffff" data-original="#000000" class=""></rect>
	</g>
</g>
<g>
	<g>
		<rect x="135.5" y="474.5" width="105.5" height="37.5" fill="#ffffff" data-original="#000000" class=""></rect>
	</g>
</g>
<g>
	<g>
		<rect x="271" y="474.5" width="105.5" height="37.5" fill="#ffffff" data-original="#000000" class=""></rect>
	</g>
</g>
<g>
	<g>
		<rect x="135.5" y="407" width="105.5" height="37.5" fill="#ffffff" data-original="#000000" class=""></rect>
	</g>
</g>
<g>
	<g>
		<rect x="271" y="407" width="105.5" height="37.5" fill="#ffffff" data-original="#000000" class=""></rect>
	</g>
</g>
<g>
	<g>
		<path d="M90.5,0h-15v15c0,83.999,57.672,154.776,135.5,174.819V180.5c0-37.61,9.925-72.941,27.278-103.531
			C205.594,30.457,151.538,0,90.5,0z" fill="#ffffff" data-original="#000000" class=""></path>
	</g>
</g>
<g>
	<g>
		<path d="M421.5,0C321.972,0,241,80.972,241,180.5V242h30v-47.128c92.536-7.65,165.5-85.395,165.5-179.872V0H421.5z" fill="#ffffff" data-original="#000000" class=""></path>
	</g>
</g>
<g>
</g>
<g>
</g>
<g>
</g>
<g>
</g>
<g>
</g>
<g>
</g>
<g>
</g>
<g>
</g>
<g>
</g>
<g>
</g>
<g>
</g>
<g>
</g>
<g>
</g>
<g>
</g>
<g>
</g>
</g></svg>