<svg width="38" height="38" viewBox="0 0 38 38" fill="none" xmlns="http://www.w3.org/2000/svg">
<circle cx="19" cy="19" r="19" fill="#D7206A"/>
<path d="M12 24.2727C12 28.4148 15.3579 31.7727 19.5 31.7727C23.6421 31.7727 27 28.4148 27 24.2727C27 20.1306 23.6421 16.7727 19.5 16.7727C15.3579 16.7727 12 20.1306 12 24.2727ZM18.7744 20.7162V19.7726H20.2257V20.7194C21.2474 20.8878 22.0293 21.7767 22.0293 22.8453H20.5779C20.5779 22.4573 20.2623 22.1417 19.8744 22.1417H19.1077C18.7203 22.1417 18.4051 22.457 18.4051 22.8444C18.4051 23.2319 18.7203 23.5471 19.1077 23.5471H19.8923C21.0801 23.5471 22.0464 24.5133 22.0464 25.7011C22.0464 26.7754 21.2557 27.6685 20.2257 27.8293V28.7729H18.7743V27.8311C17.7515 27.6766 16.965 26.7917 16.965 25.7264H18.4164C18.4164 26.0999 18.7203 26.4037 19.0938 26.4037H19.8923C20.2797 26.4037 20.595 26.0885 20.595 25.7011C20.595 25.3136 20.2797 24.9984 19.8923 24.9984H19.1077C17.92 24.9984 16.9537 24.0321 16.9537 22.8443C16.9537 21.7701 17.7443 20.877 18.7744 20.7162Z" fill="white"/>
<path d="M20.9614 15.4402C21.6553 15.5541 22.3324 15.7491 22.9856 16.0254C23.8411 16.3872 24.6262 16.8744 25.3276 17.4773V11.9571H26.7851V10.6405L23.1445 7L19.5039 10.6406V11.9572H20.9614V15.4402Z" fill="white"/>
<path d="M13.6723 17.4773C14.3737 16.8745 15.1589 16.3873 16.0143 16.0254C16.6675 15.7491 17.3446 15.5541 18.0386 15.4403V14.2792H19.496V12.9626L15.8554 9.32202L12.2148 12.9626V14.2792H13.6723V17.4773Z" fill="white"/>
</svg>
