<svg width="38" height="38" viewBox="0 0 38 38" fill="none" xmlns="http://www.w3.org/2000/svg">
<circle cx="19" cy="19" r="19" fill="#D7206A"/>
<path d="M22.7848 12.0992C22.3361 11.871 21.7872 12.0498 21.559 12.4987L14.7789 25.8341C14.5507 26.283 14.7295 26.8317 15.1784 27.0599C15.3107 27.1272 15.4518 27.1591 15.5908 27.1591C15.923 27.1591 16.2432 26.9769 16.4041 26.6604L23.1842 13.325C23.4124 12.8762 23.2336 12.3275 22.7848 12.0992Z" fill="white"/>
<path d="M17.9149 16.4907C17.9149 14.5842 16.3638 13.0332 14.4574 13.0332C12.551 13.0332 11 14.5842 11 16.4907C11 18.3971 12.551 19.9481 14.4574 19.9481C16.3639 19.9481 17.9149 18.3971 17.9149 16.4907ZM14.4574 18.1249C13.5564 18.1249 12.8233 17.3918 12.8233 16.4907C12.8233 15.5896 13.5564 14.8565 14.4574 14.8565C15.3586 14.8565 16.0917 15.5895 16.0917 16.4907C16.0916 17.3918 15.3586 18.1249 14.4574 18.1249Z" fill="white"/>
<path d="M23.5434 19.2111C21.637 19.2111 20.0859 20.7622 20.0859 22.6686C20.0859 24.575 21.6369 26.126 23.5434 26.126C25.4498 26.126 27.0009 24.575 27.0009 22.6686C27.0009 20.7621 25.4499 19.2111 23.5434 19.2111ZM23.5434 24.3027C22.6423 24.3027 21.9092 23.5696 21.9092 22.6685C21.9092 21.7674 22.6423 21.0343 23.5434 21.0343C24.4445 21.0343 25.1776 21.7674 25.1776 22.6685C25.1776 23.5696 24.4446 24.3027 23.5434 24.3027Z" fill="white"/>
</svg>
