<svg width="38" height="38" viewBox="0 0 38 38" fill="none" xmlns="http://www.w3.org/2000/svg">
<circle cx="19" cy="19" r="19" fill="#D7206A"/>
<g clip-path="url(#clip0_2230_145)">
<path d="M11.6835 21.3684H9.87651C9.61335 21.3684 9.39844 21.5833 9.39844 21.8465V28.5219C9.39844 28.7851 9.61335 29 9.87651 29H11.6835C11.9467 29 12.1616 28.7851 12.1616 28.5219V21.8465C12.1616 21.5833 11.9467 21.3684 11.6835 21.3684Z" fill="white"/>
<path d="M28.4382 21.9123C28.425 21.8947 28.4119 21.8772 28.4031 21.8596C28.1356 21.5614 27.6838 21.5219 27.368 21.7675C26.4908 22.4825 25.2101 23.5132 24.3812 24.1842C23.6487 24.7675 22.7452 25.1053 21.8066 25.1403L19.561 25.2149C19.1487 25.2281 18.7627 25.0175 18.5522 24.6623L18.3022 24.2368C18.2364 24.1272 18.1926 24.0044 18.1663 23.8772C18.0522 23.2675 18.4513 22.6754 19.061 22.5614L21.3812 22.1228C21.754 22.0482 22.0084 21.6974 21.9645 21.3202C21.9206 20.9605 21.6136 20.693 21.254 20.6886C21.2408 20.6886 21.2233 20.6886 21.2189 20.6886C21.2013 20.6886 21.1794 20.6886 21.1619 20.6886L18.0391 20.5614C16.9557 20.5219 16.0215 20.7325 14.9163 21.2675L13.0391 22.1754V27.1754L14.6136 26.886C14.618 26.8816 14.6224 26.8816 14.6268 26.8816C15.2364 26.7939 15.6399 26.7544 16.3022 26.7851L21.0171 27.0044C22.4952 27.0658 23.947 26.5789 25.0829 25.6316L28.3461 22.9254C28.6487 22.6711 28.6882 22.2149 28.4382 21.9123Z" fill="white"/>
<path d="M22.4827 9C19.7985 9.00439 17.6274 11.1798 17.623 13.8596C17.623 13.864 17.623 13.864 17.623 13.864C17.623 16.5482 19.8029 18.7237 22.4871 18.7237C25.1713 18.7237 27.3467 16.5439 27.3467 13.8596C27.3467 11.1754 25.1669 9 22.4827 9ZM23.6099 12.5088H24.1976C24.4388 12.5088 24.6362 12.7061 24.6362 12.9474C24.6362 13.1886 24.4388 13.386 24.1976 13.386H23.6099C23.5222 13.7281 23.3467 14.0395 23.0967 14.2895C22.7678 14.6184 22.3292 14.8114 21.8643 14.8377L23.5178 16.4035C23.6932 16.5702 23.702 16.8465 23.5353 17.0219C23.3687 17.1974 23.0923 17.2061 22.9169 17.0395L20.4652 14.7193C20.3818 14.636 20.3292 14.5219 20.3292 14.4035C20.3248 14.1579 20.5222 13.9605 20.7678 13.9561H21.7502C22.0222 13.9605 22.2853 13.8553 22.4827 13.6623C22.5616 13.5789 22.6274 13.4868 22.6845 13.386H20.7678C20.5266 13.386 20.3292 13.1886 20.3292 12.9474C20.3292 12.7061 20.5266 12.5088 20.7678 12.5088H22.6845C22.5222 12.1579 22.1625 11.8947 21.7502 11.8947H20.7678C20.5266 11.8947 20.3292 11.6974 20.3292 11.4561C20.3292 11.2149 20.5266 11.0175 20.7678 11.0175H24.1976C24.4388 11.0175 24.6362 11.2149 24.6362 11.4561C24.6362 11.6974 24.4388 11.8947 24.1976 11.8947H23.3555C23.4783 12.0833 23.5616 12.2895 23.6099 12.5088Z" fill="white"/>
</g>
<defs>
<clipPath id="clip0_2230_145">
<rect width="20" height="20" fill="white" transform="translate(9 9)"/>
</clipPath>
</defs>
</svg>
