<svg xmlns="http://www.w3.org/2000/svg" version="1.1" xmlns:xlink="http://www.w3.org/1999/xlink" xmlns:svgjs="http://svgjs.com/svgjs" width="512" height="512" x="0" y="0" viewBox="0 0 512 512" style="enable-background:new 0 0 512 512" xml:space="preserve" class=""><g><g><path d="m440.958 325.2h-202.945l143.475 143.475c6.343 6.343 16.848 5.775 22.371-1.294 28.489-36.469 46.354-79.565 52.002-125.445 1.096-8.904-5.931-16.736-14.903-16.736z" fill="#ffffff" data-original="#000000" class=""></path><path d="m191.193 320.807c-2.813-2.813-4.394-6.629-4.394-10.607v-184.394c0-9.189-8.199-16.292-17.271-14.828-96.182 15.526-169.829 99.274-169.527 199.838.332 110.61 90.664 200.903 201.273 201.183 43.152.109 84.268-13.253 118.561-38.105 7.445-5.396 8.238-16.208 1.736-22.709z" fill="#ffffff" data-original="#000000" class=""></path><path d="m511.923 278.684c-14.839-146.742-131.865-263.767-278.607-278.607-8.85-.895-16.516 6.116-16.516 15.011v280.112h280.112c8.895 0 15.906-7.666 15.011-16.516z" fill="#ffffff" data-original="#000000" class=""></path></g></g></svg>