<svg xmlns="http://www.w3.org/2000/svg" version="1.1" xmlns:xlink="http://www.w3.org/1999/xlink" xmlns:svgjs="http://svgjs.com/svgjs" width="512" height="512" x="0" y="0" viewBox="0 0 512 512" style="enable-background:new 0 0 512 512" xml:space="preserve" class=""><g><g><path d="m271 30.667v-30.667h-30v30.667c-137.792 6.879-241 108.299-241 240.333l.015 24.17 21.68-10.737c.263-.147 28.348-13.433 54.305-13.433 19.351 0 42.231 18.501 49.409 25.62l10.605 10.488 10.576-10.488c7.179-7.119 30.059-25.62 49.41-25.62 16.401 0 35.237 13.237 45 21.625v174.375c0 24.814 20.186 45 45 45s45-20.186 45-45v-30h-30v30c0 8.276-6.724 15-15 15s-15-6.724-15-15v-174.375c9.763-8.388 28.599-21.625 45-21.625 19.351 0 42.231 18.501 49.409 25.62l10.605 10.488 10.576-10.488c7.179-7.119 31.059-25.62 50.41-25.62 25.957 0 53.042 13.286 53.306 13.433l21.694 10.752v-24.185c0-132.034-103.208-233.454-241-240.333z" fill="#ffffff" data-original="#000000" class=""></path></g></g></svg>