<svg width="38" height="38" viewBox="0 0 38 38" fill="none" xmlns="http://www.w3.org/2000/svg">
<circle cx="19" cy="19" r="19" fill="#D7206A"/>
<path d="M27.2244 21.7031H19.2969L24.9014 27.3076C25.1491 27.5554 25.5595 27.5332 25.7752 27.2571C26.8881 25.8325 27.5859 24.1491 27.8066 22.3569C27.8494 22.0091 27.5749 21.7031 27.2244 21.7031Z" fill="white"/>
<path d="M17.4685 21.5316C17.3586 21.4217 17.2968 21.2726 17.2968 21.1172V13.9144C17.2968 13.5554 16.9766 13.2779 16.6222 13.3351C12.8651 13.9416 9.98824 17.213 10 21.1413C10.013 25.462 13.5416 28.9891 17.8623 29C19.5479 29.0043 21.154 28.4823 22.4936 27.5115C22.7844 27.3008 22.8153 26.8784 22.5614 26.6245L17.4685 21.5316Z" fill="white"/>
<path d="M29.997 19.8861C29.4173 14.154 24.846 9.5827 19.1139 9.00301C18.7682 8.96805 18.4688 9.24192 18.4688 9.58938V20.5313H29.4106C29.7581 20.5313 30.032 20.2318 29.997 19.8861Z" fill="white"/>
</svg>
