<svg xmlns="http://www.w3.org/2000/svg" version="1.1" xmlns:xlink="http://www.w3.org/1999/xlink" xmlns:svgjs="http://svgjs.com/svgjs" width="512" height="512" x="0" y="0" viewBox="0 0 74 74" style="enable-background:new 0 0 512 512" xml:space="preserve" class=""><g><path d="m69 72h-64a3 3 0 0 1 -3-3v-46a1 1 0 0 1 1-1h68a1 1 0 0 1 1 1v46a3 3 0 0 1 -3 3zm-65-48v45a1 1 0 0 0 1 1h64a1 1 0 0 0 1-1v-45z" fill="#d7206a" data-original="#d7206a" class=""></path><path d="m71 24h-68a1 1 0 0 1 -1-1v-11a3 3 0 0 1 3-3h10a1 1 0 0 1 0 2h-10a1 1 0 0 0 -1 1v10h66v-10a1 1 0 0 0 -1-1h-10a1 1 0 0 1 0-2h10a3 3 0 0 1 3 3v11a1 1 0 0 1 -1 1z" fill="#d7206a" data-original="#d7206a" class=""></path><path d="m52 11h-30a1 1 0 0 1 0-2h30a1 1 0 0 1 0 2z" fill="#d7206a" data-original="#d7206a" class=""></path><path d="m55.5 18a4.51 4.51 0 0 1 -4.5-4.5v-7a4.5 4.5 0 0 1 9 0v7a4.51 4.51 0 0 1 -4.5 4.5zm0-14a2.5 2.5 0 0 0 -2.5 2.5v7a2.5 2.5 0 0 0 5 0v-7a2.5 2.5 0 0 0 -2.5-2.5z" fill="#d7206a" data-original="#d7206a" class=""></path><path d="m18.5 18a4.51 4.51 0 0 1 -4.5-4.5v-7a4.5 4.5 0 0 1 9 0v7a4.51 4.51 0 0 1 -4.5 4.5zm0-14a2.5 2.5 0 0 0 -2.5 2.5v7a2.5 2.5 0 0 0 5 0v-7a2.5 2.5 0 0 0 -2.5-2.5z" fill="#d7206a" data-original="#d7206a" class=""></path><path d="m39.31 64.38h-4.62a1 1 0 0 1 -1-.87l-.4-3a14 14 0 0 1 -3.23-1.34l-2.4 1.83a1 1 0 0 1 -1.31-.09l-3.27-3.27a1 1 0 0 1 -.08-1.3l1.84-2.41a14 14 0 0 1 -1.34-3.23l-3-.4a1 1 0 0 1 -.87-1v-4.61a1 1 0 0 1 .87-1l3-.4a14 14 0 0 1 1.34-3.23l-1.84-2.4a1 1 0 0 1 .09-1.31l3.27-3.27a1 1 0 0 1 1.3-.08l2.41 1.84a14 14 0 0 1 3.23-1.34l.4-3a1 1 0 0 1 1-.87h4.62a1 1 0 0 1 1 .87l.4 3a14 14 0 0 1 3.23 1.34l2.39-1.84a1 1 0 0 1 1.31.09l3.27 3.27a1 1 0 0 1 .08 1.3l-1.84 2.41a14 14 0 0 1 1.34 3.23l3 .4a1 1 0 0 1 .87 1v4.62a1 1 0 0 1 -.87 1l-3 .4a14 14 0 0 1 -1.34 3.23l1.84 2.39a1 1 0 0 1 -.09 1.31l-3.27 3.27a1 1 0 0 1 -1.31.09l-2.41-1.84a14 14 0 0 1 -3.23 1.34l-.4 3a1 1 0 0 1 -.98.87zm-3.75-2h2.88l.37-2.81a1 1 0 0 1 .78-.85 11.93 11.93 0 0 0 3.87-1.6 1 1 0 0 1 1.14 0l2.26 1.73 2-2-1.7-2.25a1 1 0 0 1 0-1.14 11.93 11.93 0 0 0 1.6-3.87 1 1 0 0 1 .85-.78l2.81-.37v-2.88l-2.81-.37a1 1 0 0 1 -.85-.78 11.93 11.93 0 0 0 -1.6-3.87 1 1 0 0 1 0-1.14l1.73-2.26-2-2-2.29 1.7a1 1 0 0 1 -1.14 0 11.93 11.93 0 0 0 -3.87-1.6 1 1 0 0 1 -.78-.85l-.37-2.81h-2.88l-.37 2.81a1 1 0 0 1 -.78.85 11.93 11.93 0 0 0 -3.87 1.6 1 1 0 0 1 -1.14 0l-2.26-1.73-2 2 1.73 2.26a1 1 0 0 1 0 1.14 11.93 11.93 0 0 0 -1.6 3.87 1 1 0 0 1 -.85.78l-2.81.37v2.88l2.81.37a1 1 0 0 1 .85.78 11.93 11.93 0 0 0 1.6 3.87 1 1 0 0 1 0 1.14l-1.73 2.26 2 2 2.26-1.73a1 1 0 0 1 1.14 0 11.93 11.93 0 0 0 3.87 1.6 1 1 0 0 1 .78.85z" fill="#d7206a" data-original="#d7206a" class=""></path><path d="m37 56.1a9.1 9.1 0 1 1 9.1-9.1 9.11 9.11 0 0 1 -9.1 9.1zm0-16.2a7.1 7.1 0 1 0 7.1 7.1 7.11 7.11 0 0 0 -7.1-7.1z" fill="#d7206a" data-original="#d7206a" class=""></path></g></svg>