<svg width="19" height="21" viewBox="0 0 19 21" fill="none" xmlns="http://www.w3.org/2000/svg">
<g clip-path="url(#clip0_163_1181)">
<path d="M7.3895 20.4086C7.02796 20.0305 6.8251 19.5195 6.8251 18.9869C6.8251 18.4544 7.02796 17.9434 7.3895 17.5653L12.3231 12.4475C12.8152 11.9359 13.0916 11.2426 13.0916 10.5199C13.0916 9.79709 12.8152 9.10383 12.3231 8.59214L7.3895 3.47435C7.02663 3.09699 6.82285 2.58575 6.82285 2.05275C6.82285 1.51974 7.02663 1.0085 7.3895 0.631137C7.75328 0.254724 8.24613 0.043335 8.75995 0.043335C9.27377 0.043335 9.76662 0.254724 10.1304 0.631137L18.4957 9.30864C18.6523 9.46986 18.7766 9.66165 18.8615 9.87295C18.9463 10.0842 18.99 10.3109 18.99 10.5397C18.99 10.7686 18.9463 10.9953 18.8615 11.2066C18.7766 11.4178 18.6523 11.6096 18.4957 11.7709L10.1304 20.4484C9.7602 20.8168 9.26505 21.0191 8.75209 21.0117C8.23913 21.0042 7.74961 20.7876 7.3895 20.4086Z" fill="#D7206A"/>
<path d="M0.570098 16.3883C0.20723 16.0109 0.00346375 15.4997 0.00346375 14.9667C0.00346375 14.4337 0.20723 13.9224 0.570098 13.5451L2.15435 11.896C2.33054 11.7147 2.47038 11.499 2.56581 11.2613C2.66124 11.0237 2.71037 10.7688 2.71037 10.5114C2.71037 10.2539 2.66124 9.99902 2.56581 9.76137C2.47038 9.52372 2.33054 9.30803 2.15435 9.12671L0.570098 7.47765C0.20723 7.10029 0.00346375 6.58904 0.00346375 6.05604C0.00346375 5.52304 0.20723 5.0118 0.570098 4.63443C0.933883 4.25802 1.42673 4.04663 1.94055 4.04663C2.45438 4.04663 2.94723 4.25802 3.31101 4.63443L7.80063 9.29162C7.95725 9.45285 8.08158 9.64463 8.16641 9.85593C8.25124 10.0672 8.29492 10.2938 8.29492 10.5227C8.29492 10.7516 8.25124 10.9782 8.16641 11.1895C8.08158 11.4008 7.95725 11.5926 7.80063 11.7538L3.31101 16.411C2.94433 16.7844 2.44985 16.9917 1.93602 16.9875C1.42219 16.9832 0.930972 16.7677 0.570098 16.3883Z" fill="#D7206A"/>
</g>
<defs>
<clipPath id="clip0_163_1181">
<rect width="19" height="21" fill="white"/>
</clipPath>
</defs>
</svg>
