<svg xmlns="http://www.w3.org/2000/svg" version="1.1" xmlns:xlink="http://www.w3.org/1999/xlink" xmlns:svgjs="http://svgjs.com/svgjs" width="512" height="512" x="0" y="0" viewBox="0 0 70 70" style="enable-background:new 0 0 512 512" xml:space="preserve" class=""><g><path xmlns="http://www.w3.org/2000/svg" d="m61.1 53h-52.2a3.38 3.38 0 0 1 -3.38-3.38v-36.62a3.38 3.38 0 0 1 3.38-3.43h52.2a3.38 3.38 0 0 1 3.38 3.43v36.66a3.38 3.38 0 0 1 -3.38 3.34zm-52.2-41.43a1.38 1.38 0 0 0 -1.38 1.43v36.66a1.38 1.38 0 0 0 1.38 1.34h52.2a1.38 1.38 0 0 0 1.38-1.38v-36.62a1.38 1.38 0 0 0 -1.38-1.38z" fill="#d7206a" data-original="#000000" class=""></path><path xmlns="http://www.w3.org/2000/svg" d="m61.69 60.43h-53.38a7.32 7.32 0 0 1 -7.31-7.31v-1.12a1 1 0 0 1 1-1h66a1 1 0 0 1 1 1v1.08a7.32 7.32 0 0 1 -7.31 7.35zm-58.69-7.43v.08a5.31 5.31 0 0 0 5.31 5.31h53.38a5.31 5.31 0 0 0 5.31-5.27v-.12z" fill="#d7206a" data-original="#000000" class=""></path><path xmlns="http://www.w3.org/2000/svg" d="m57.08 48.55h-44.16a1 1 0 0 1 0-2h44.16a1 1 0 0 1 0 2z" fill="#d7206a" data-original="#000000" class=""></path><path xmlns="http://www.w3.org/2000/svg" d="m19.16 44.64a1 1 0 0 1 -1-1v-5.39a1 1 0 0 1 2 0v5.39a1 1 0 0 1 -1 1z" fill="#d7206a" data-original="#000000" class=""></path><path xmlns="http://www.w3.org/2000/svg" d="m25.5 44.64a1 1 0 0 1 -1-1v-12.27a1 1 0 0 1 2 0v12.27a1 1 0 0 1 -1 1z" fill="#d7206a" data-original="#000000" class=""></path><path xmlns="http://www.w3.org/2000/svg" d="m31.83 44.64a1 1 0 0 1 -1-1v-9.08a1 1 0 0 1 2 0v9.08a1 1 0 0 1 -1 1z" fill="#d7206a" data-original="#000000" class=""></path><path xmlns="http://www.w3.org/2000/svg" d="m38.17 44.64a1 1 0 0 1 -1-1v-17.12a1 1 0 1 1 2 0v17.12a1 1 0 0 1 -1 1z" fill="#d7206a" data-original="#000000" class=""></path><path xmlns="http://www.w3.org/2000/svg" d="m44.5 44.64a1 1 0 0 1 -1-1v-13.64a1 1 0 0 1 2 0v13.64a1 1 0 0 1 -1 1z" fill="#d7206a" data-original="#000000" class=""></path><path xmlns="http://www.w3.org/2000/svg" d="m50.84 44.64a1 1 0 0 1 -1-1v-22a1 1 0 1 1 2 0v22a1 1 0 0 1 -1 1z" fill="#d7206a" data-original="#000000" class=""></path><path xmlns="http://www.w3.org/2000/svg" d="m19.16 31.5a1 1 0 0 1 -.93-.94 1 1 0 0 1 .93-1.06c.26 0 .88-1 1.22-1.5 1-1.56 2.43-3.69 5.12-3.69s4.1 1.72 5.15 3a6.15 6.15 0 0 0 1.06 1.09 15.33 15.33 0 0 0 1.41-2.94c1.21-2.93 2.57-6.25 5.05-6.25 2.3 0 3.83 1.89 4.95 3.28a8.29 8.29 0 0 0 1.27 1.37 20.29 20.29 0 0 0 1.74-3.53c1.39-3.21 2.69-6.25 4.71-6.25a1 1 0 1 1 0 2c-.76.13-2.18 3.45-2.87 5-1.24 2.89-2.06 4.8-3.47 4.8-1.17 0-2-1-2.93-2.17s-2.06-2.54-3.4-2.54c-1.14 0-2.43 3.13-3.2 5-1 2.45-1.73 4.22-3.14 4.22-1.17 0-1.95-.94-2.71-1.85-.94-1.11-1.9-2.26-3.62-2.26-1.5 0-2.38 1.15-3.45 2.79-.81 1.26-1.57 2.43-2.89 2.43z" fill="#d7206a" data-original="#000000" class=""></path></g></svg>