<svg width="50" height="46" viewBox="0 0 50 46" fill="none" xmlns="http://www.w3.org/2000/svg">
<path fill-rule="evenodd" clip-rule="evenodd" d="M25.7918 0.0392932C31.2611 -0.312551 36.5207 1.7212 40.7324 5.22812C45.4096 9.12263 49.5856 14.0944 49.9667 20.1688C50.3665 26.5395 47.1157 32.4691 42.7328 37.1097C38.2063 41.9023 32.3757 45.4341 25.7918 45.7649C18.887 46.1119 11.941 43.7966 7.05818 38.9024C2.18038 34.0131 -0.939608 26.9709 0.255492 20.1688C1.33869 14.0035 7.74123 10.9093 12.6572 7.03422C16.7069 3.84196 20.6458 0.370338 25.7918 0.0392932Z" fill="#FADFE9" fill-opacity="0.51"/>
<g clip-path="url(#clip0_1867_215)">
<path d="M32.5 41H25.8333C25.3733 41 25 40.6267 25 40.1667C25 39.7067 25.3733 39.3334 25.8333 39.3334H32.5C33.8783 39.3334 35 38.2117 35 36.8334V28.5C35 28.04 35.3733 27.6667 35.8333 27.6667C36.2933 27.6667 36.6667 28.04 36.6667 28.5V36.8334C36.6667 39.13 34.7983 41 32.5 41Z" fill="#D7206A"/>
<path d="M49.1665 24.3334H32.4998C32.0398 24.3334 31.6665 23.96 31.6665 23.5C31.6665 23.04 32.0398 22.6667 32.4998 22.6667H49.1665C49.6265 22.6667 49.9998 23.04 49.9998 23.5C49.9998 23.96 49.6265 24.3334 49.1665 24.3334Z" fill="#D7206A"/>
<path d="M23.3333 46C22.9667 46 22.6083 45.9383 22.27 45.8183L12.2867 42.49C10.92 42.035 10 40.765 10 39.3333V9.33333C10 7.495 11.495 6 13.3333 6C13.7033 6 14.0633 6.06167 14.3983 6.18333L24.38 9.51C25.7467 9.96333 26.6667 11.2333 26.6667 12.6667V42.6667C26.6667 44.505 25.1717 46 23.3333 46ZM13.3333 7.66667C12.4133 7.66667 11.6667 8.415 11.6667 9.33333V39.3333C11.6667 40.0467 12.1267 40.68 12.8133 40.91L22.8133 44.2433C23.9067 44.6317 25 43.7567 25 42.6667V12.6667C25 11.9517 24.54 11.3183 23.8533 11.0917L13.8533 7.75833C13.6817 7.69667 13.5067 7.66667 13.3333 7.66667Z" fill="#D7206A"/>
<path d="M35.8333 19.3333C35.3733 19.3333 35 18.96 35 18.5V10.1667C35 8.78833 33.8783 7.66667 32.5 7.66667H13.3333C12.8733 7.66667 12.5 7.29333 12.5 6.83333C12.5 6.37333 12.8733 6 13.3333 6H32.5C34.7983 6 36.6667 7.87 36.6667 10.1667V18.5C36.6667 18.96 36.2933 19.3333 35.8333 19.3333Z" fill="#D7206A"/>
<path d="M42.4998 31C42.2864 31 42.0731 30.9183 41.9098 30.7567C41.5848 30.4317 41.5848 29.9033 41.9098 29.5783L47.9864 23.5017L41.9098 17.425C41.5848 17.1 41.5848 16.5717 41.9098 16.2467C42.2348 15.9217 42.7631 15.9217 43.0881 16.2467L49.7548 22.9133C50.0798 23.2383 50.0798 23.7667 49.7548 24.0917L43.0881 30.7583C42.9264 30.9183 42.7131 31 42.4998 31Z" fill="#D7206A"/>
</g>
<defs>
<clipPath id="clip0_1867_215">
<rect width="40" height="40" fill="white" transform="translate(10 6)"/>
</clipPath>
</defs>
</svg>
