<svg width="50" height="46" viewBox="0 0 50 46" fill="none" xmlns="http://www.w3.org/2000/svg">
<path fill-rule="evenodd" clip-rule="evenodd" d="M25.7918 0.0392932C31.2611 -0.312551 36.5207 1.7212 40.7324 5.22812C45.4096 9.12263 49.5856 14.0944 49.9667 20.1688C50.3665 26.5395 47.1157 32.4691 42.7328 37.1097C38.2063 41.9023 32.3757 45.4341 25.7918 45.7649C18.887 46.1119 11.941 43.7966 7.05818 38.9024C2.18038 34.0131 -0.939608 26.9709 0.255492 20.1688C1.33869 14.0035 7.74123 10.9093 12.6572 7.03422C16.7069 3.84196 20.6458 0.370338 25.7918 0.0392932Z" fill="#FADFE9" fill-opacity="0.51"/>
<path d="M42.7742 25.5749V21.7039C42.7742 19.2142 40.7484 17.1878 38.2581 17.1878H34.3871V13.2768C34.3871 12.1503 33.8032 11.1316 32.8252 10.5503C31.8258 9.95809 30.62 9.93615 29.6206 10.482L28.5806 11V8.8968C28.5806 7.56325 27.8426 6.39938 26.6548 5.86067C25.5129 5.34325 24.2129 5.53938 23.2626 6.37228L10.9187 17.1878H10.5161C8.02581 17.1878 6 19.2142 6 21.7039V38.4781C6 40.9678 8.02581 42.9942 10.5161 42.9942H38.2581C40.7484 42.9942 42.7742 40.9678 42.7742 38.4781V34.6071C44.5529 34.6071 46 33.16 46 31.3813V28.8007C46 27.022 44.5529 25.5749 42.7742 25.5749ZM30.2174 11.6252C30.8335 11.2891 31.5626 11.3013 32.1665 11.66C32.749 12.0058 33.0968 12.6097 33.0968 13.2768V17.1878H19.0619L30.2174 11.6252ZM24.1129 7.34261C24.6858 6.84067 25.4368 6.72519 26.1219 7.03615C26.6865 7.29228 27.2903 7.91551 27.2903 8.8968V11.6433L16.171 17.1878H12.8768L24.1129 7.34261ZM41.4839 38.4781C41.4839 40.2568 40.0368 41.7039 38.2581 41.7039H10.5161C8.73742 41.7039 7.29032 40.2568 7.29032 38.4781V21.7039C7.29032 19.9252 8.73742 18.4781 10.5161 18.4781H38.2581C40.0368 18.4781 41.4839 19.9252 41.4839 21.7039V25.5749H35.0323C31.8064 25.5749 31.8064 28.9742 31.8064 30.091C31.8064 31.2078 31.8064 34.6071 35.0323 34.6071H41.4839V38.4781ZM44.7097 31.3813C44.7097 32.4484 43.8413 33.3168 42.7742 33.3168H35.0323C33.8703 33.3168 33.0968 32.7678 33.0968 30.091C33.0968 27.4142 33.8703 26.8652 35.0323 26.8652H42.7742C43.8413 26.8652 44.7097 27.7336 44.7097 28.8007V31.3813Z" fill="#D7206A"/>
<path d="M36.9679 27.5103C35.5446 27.5103 34.3872 28.6677 34.3872 30.091C34.3872 31.5142 35.5446 32.6716 36.9679 32.6716C38.3911 32.6716 39.5485 31.5142 39.5485 30.091C39.5485 28.6677 38.3911 27.5103 36.9679 27.5103ZM36.9679 31.3813C36.2562 31.3813 35.6775 30.8026 35.6775 30.091C35.6775 29.3793 36.2562 28.8006 36.9679 28.8006C37.6795 28.8006 38.2582 29.3793 38.2582 30.091C38.2582 30.8026 37.6795 31.3813 36.9679 31.3813Z" fill="#D7206A"/>
<path d="M37.0386 13.1671L36.6354 13.409C36.4509 13.52 36.3341 13.7148 36.3231 13.929C36.3121 14.1439 36.4083 14.3497 36.5799 14.4787L39.1605 16.4142C39.2747 16.5 39.4115 16.5432 39.5476 16.5432C39.6721 16.5432 39.7967 16.5071 39.9057 16.4348L40.0192 16.3594C42.3721 14.7903 43.8444 12.2413 44.0412 9.44645H44.8902C45.3367 9.44645 45.7354 9.18 45.9057 8.76774C46.0689 8.3729 45.9909 7.92516 45.707 7.61097L42.7612 3.64839C42.4547 3.23613 41.9844 3 41.4715 3H41.4709C40.9573 3.00065 40.4876 3.23677 40.1818 3.64968L37.2541 7.59161C36.9676 7.90839 36.8876 8.36065 37.0528 8.76C37.225 9.17677 37.6283 9.44581 38.0792 9.44581H38.9747C39.0799 10.9348 38.3425 12.3845 37.0386 13.1671ZM40.1928 8.79936C40.1896 8.72903 40.1747 8.65742 40.1463 8.58839L40.1341 8.55871C40.1341 8.55806 40.1334 8.55806 40.1334 8.55742C40.0754 8.41355 39.9702 8.30194 39.8431 8.2329C39.716 8.16387 39.8431 8.23226 39.8425 8.23226C39.8063 8.21355 39.7683 8.19677 39.7296 8.18516C39.6638 8.16452 39.5934 8.15806 39.5238 8.15548H38.4425L41.218 4.41806C41.2999 4.3071 41.4121 4.29032 41.4715 4.29032C41.5309 4.29032 41.6431 4.3071 41.7263 4.41806L44.5057 8.15548H43.4192C43.0631 8.15548 42.7741 8.44387 42.7741 8.80065C42.7741 11.3058 41.5799 13.6387 39.5644 15.1039L38.1031 14.0071C39.7257 12.8206 40.5489 10.7974 40.1928 8.79936Z" fill="#D7206A"/>
</svg>
