<svg xmlns="http://www.w3.org/2000/svg" version="1.1" xmlns:xlink="http://www.w3.org/1999/xlink" xmlns:svgjs="http://svgjs.com/svgjs" width="512" height="512" x="0" y="0" viewBox="0 0 1.70666 1.70666" style="enable-background:new 0 0 512 512" xml:space="preserve" class=""><g><g id="Layer_x0020_1" fill-rule="nonzero"><path d="m.0401575.813488c-.0220039-.00008661-.0399134.0176811-.04.039685-.00008661.0220039.0176811.0399134.039685.04l1.62667.00818504c.0220039.00008661.0399134-.0176811.04-.039685.00008661-.0220039-.0176811-.0399134-.039685-.04l-1.62667-.00818504z" fill="#000000" data-original="#000000" class=""></path><path d="m.827268.180453c.0162205-.0149252.0172677-.040185.00234252-.0564055-.0149252-.0162205-.040185-.0172677-.0564055-.00234252l-.760346.702244c-.0162244.0149882-.0172283.0402992-.00224016.0565236.205657.222898.530965.490528.762587.704484.0162205.0149252.0414803.013878.0564055-.00234252.0149252-.0162205.013878-.0414803-.00234252-.0564055l-.728437-.672878.728437-.672878z" fill="#000000" data-original="#000000" class=""></path></g></g></svg>