<svg xmlns="http://www.w3.org/2000/svg" version="1.1" xmlns:xlink="http://www.w3.org/1999/xlink" xmlns:svgjs="http://svgjs.com/svgjs" width="512" height="512" x="0" y="0" viewBox="0 0 64 64" style="enable-background:new 0 0 512 512" xml:space="preserve" class=""><g><g><path d="m53.909 57.011c-.69 0-1.404-.264-2.03-.89-.391-.391-.391-1.023 0-1.414s1.023-.391 1.414 0c.627.627 1.25.073 1.368-.046.118-.118.675-.739.046-1.368-.391-.391-.391-1.023 0-1.414s1.023-.391 1.414 0c1.362 1.362 1.008 3.143-.046 4.196-.569.571-1.352.936-2.166.936z" fill="#d7206a" data-original="#000000" class=""></path></g><g><path d="m50.258 48.429c-.256 0-.512-.098-.707-.293l-.001-.001c-.391.391-1.023.392-1.414.001s-.391-1.023 0-1.414c.78-.779 2.051-.779 2.829 0 .391.391.391 1.023 0 1.414-.195.195-.451.293-.707.293z" fill="#d7206a" data-original="#000000" class=""></path></g><g><path d="m47.429 49.843c-.256 0-.512-.098-.707-.293-.391-.391-.391-1.023 0-1.414l1.414-1.414c.391-.391 1.023-.391 1.414 0s.391 1.023 0 1.414l-1.414 1.414c-.196.195-.451.293-.707.293z" fill="#d7206a" data-original="#000000" class=""></path></g><g><path d="m47.429 51.258c-.256 0-.512-.098-.707-.293-.78-.78-.78-2.049 0-2.829.391-.391 1.023-.391 1.414 0s.391 1.023 0 1.414l-.001.001c.391.391.392 1.023.001 1.414-.196.195-.451.293-.707.293z" fill="#d7206a" data-original="#000000" class=""></path></g><g><path d="m48.136 49.136c-.256 0-.512-.098-.707-.293l-3.601-3.601c-.391-.391-.391-1.023 0-1.414s1.023-.391 1.414 0l3.601 3.601c.391.391.391 1.023 0 1.414-.196.195-.451.293-.707.293z" fill="#d7206a" data-original="#000000" class=""></path></g><g><path d="m55.414 53.586c-.256 0-.512-.098-.707-.293l-5.156-5.157c-.391-.391-.391-1.023 0-1.414s1.023-.391 1.414 0l5.156 5.157c.391.391.391 1.023 0 1.414-.195.195-.451.293-.707.293z" fill="#d7206a" data-original="#000000" class=""></path></g><g><path d="m52.586 56.414c-.256 0-.512-.098-.707-.293l-5.157-5.156c-.391-.391-.391-1.023 0-1.414s1.023-.391 1.414 0l5.157 5.156c.391.391.391 1.023 0 1.414-.195.195-.451.293-.707.293z" fill="#d7206a" data-original="#000000" class=""></path></g><g><path d="m42 57c-.553 0-1-.447-1-1s.447-1 1-1c.552 0 1-.448 1-1 0-.553.447-1 1-1s1 .447 1 1c0 1.654-1.346 3-3 3z" fill="#d7206a" data-original="#000000" class=""></path></g><g><path d="m42 57h-32c-.553 0-1-.447-1-1s.447-1 1-1h32c.553 0 1 .447 1 1s-.447 1-1 1z" fill="#d7206a" data-original="#000000" class=""></path></g><g><path d="m10 57c-1.654 0-3-1.346-3-3 0-.553.447-1 1-1s1 .447 1 1c0 .552.448 1 1 1 .553 0 1 .447 1 1s-.447 1-1 1z" fill="#d7206a" data-original="#000000" class=""></path></g><g><path d="m8 11c-.553 0-1-.447-1-1 0-1.654 1.346-3 3-3 .553 0 1 .447 1 1s-.447 1-1 1c-.552 0-1 .448-1 1 0 .553-.447 1-1 1z" fill="#d7206a" data-original="#000000" class=""></path></g><g><path d="m44 17c-.256 0-.512-.098-.707-.293l-8-8c-.391-.391-.391-1.023 0-1.414s1.023-.391 1.414 0l8 8c.391.391.391 1.023 0 1.414-.195.195-.451.293-.707.293z" fill="#d7206a" data-original="#000000" class=""></path></g><g><path d="m36 9h-26c-.553 0-1-.447-1-1s.447-1 1-1h26c.553 0 1 .447 1 1s-.447 1-1 1z" fill="#d7206a" data-original="#000000" class=""></path></g><g><path d="m36 15c-.553 0-1-.447-1-1v-6c0-.553.447-1 1-1s1 .447 1 1v6c0 .553-.447 1-1 1z" fill="#d7206a" data-original="#000000" class=""></path></g><g><path d="m44 17h-6c-.553 0-1-.447-1-1s.447-1 1-1h6c.553 0 1 .447 1 1s-.447 1-1 1z" fill="#d7206a" data-original="#000000" class=""></path></g><g><path d="m38 17c-1.654 0-3-1.346-3-3 0-.553.447-1 1-1s1 .447 1 1c0 .552.448 1 1 1 .553 0 1 .447 1 1s-.447 1-1 1z" fill="#d7206a" data-original="#000000" class=""></path></g><g><path d="m44 27.552c-.553 0-1-.447-1-1v-10.552c0-.553.447-1 1-1s1 .447 1 1v10.552c0 .552-.447 1-1 1z" fill="#d7206a" data-original="#000000" class=""></path></g><g><path d="m44 55c-.553 0-1-.447-1-1v-4.208c0-.553.447-1 1-1s1 .447 1 1v4.208c0 .553-.447 1-1 1z" fill="#d7206a" data-original="#000000" class=""></path></g><g><path d="m30 15h-16c-.553 0-1-.447-1-1s.447-1 1-1h16c.553 0 1 .447 1 1s-.447 1-1 1z" fill="#d7206a" data-original="#000000" class=""></path></g><g><path d="m38 27h-24c-.553 0-1-.447-1-1s.447-1 1-1h24c.553 0 1 .447 1 1s-.447 1-1 1z" fill="#d7206a" data-original="#000000" class=""></path></g><g><path d="m38 21h-24c-.553 0-1-.447-1-1s.447-1 1-1h24c.553 0 1 .447 1 1s-.447 1-1 1z" fill="#d7206a" data-original="#000000" class=""></path></g><g><path d="m38 51h-24c-.553 0-1-.447-1-1s.447-1 1-1h24c.553 0 1 .447 1 1s-.447 1-1 1z" fill="#d7206a" data-original="#000000" class=""></path></g><g><path d="m25.173 39h-11.173c-.553 0-1-.447-1-1s.447-1 1-1h11.173c.553 0 1 .447 1 1s-.447 1-1 1z" fill="#d7206a" data-original="#000000" class=""></path></g><g><path d="m26.552 45h-12.552c-.553 0-1-.447-1-1s.447-1 1-1h12.552c.553 0 1 .447 1 1s-.448 1-1 1z" fill="#d7206a" data-original="#000000" class=""></path></g><g><path d="m26.729 33h-12.729c-.553 0-1-.447-1-1s.447-1 1-1h12.729c.553 0 1 .447 1 1s-.447 1-1 1z" fill="#d7206a" data-original="#000000" class=""></path></g><g><path d="m29.95 35.5c-.261 0-.521-.11-.7-.29-.19-.19-.29-.45-.29-.71 0-.271.1-.53.29-.71.37-.37 1.04-.37 1.41 0 .189.189.3.45.3.71s-.11.52-.3.7c-.19.19-.44.3-.71.3z" fill="#d7206a" data-original="#000000" class=""></path></g><g><path d="m38.11 48.164c-.804 0-1.614-.098-2.413-.302-4.322-1.101-7.416-4.987-7.523-9.451-.013-.553.424-1.011.976-1.024h.024c.542 0 .986.432 1 .976.084 3.516 2.615 6.695 6.018 7.563 3.533.902 7.348-.788 9.058-4.02 1.662-3.144.972-7.183-1.643-9.604-2.924-2.71-7.593-2.805-10.624-.218-.419.359-1.052.309-1.409-.112-.358-.42-.309-1.051.112-1.409 3.79-3.235 9.625-3.114 13.28.272 3.268 3.026 4.13 8.076 2.051 12.007-1.749 3.306-5.262 5.322-8.907 5.322z" fill="#d7206a" data-original="#000000" class=""></path></g><g><path d="m8 17c-.26 0-.521-.11-.71-.29-.181-.19-.29-.45-.29-.71 0-.271.109-.521.29-.71.38-.37 1.05-.37 1.42 0 .18.189.29.45.29.71s-.11.52-.29.71c-.19.18-.44.29-.71.29z" fill="#d7206a" data-original="#000000" class=""></path></g><g><path d="m8 55c-.553 0-1-.447-1-1v-34c0-.553.447-1 1-1s1 .447 1 1v34c0 .553-.447 1-1 1z" fill="#d7206a" data-original="#000000" class=""></path></g><g><path d="m8 13c-.553 0-1-.447-1-1v-2c0-.553.447-1 1-1s1 .447 1 1v2c0 .553-.447 1-1 1z" fill="#d7206a" data-original="#000000" class=""></path></g></g></svg>