<svg xmlns="http://www.w3.org/2000/svg" version="1.1" xmlns:xlink="http://www.w3.org/1999/xlink" xmlns:svgjs="http://svgjs.com/svgjs" width="512" height="512" x="0" y="0" viewBox="0 0 513 513" style="enable-background:new 0 0 512 512" xml:space="preserve" class=""><circle r="256.5" cx="256.5" cy="256.5" fill="#d7206a" shape="circle"></circle><g transform="matrix(0.6799999999999999,0,0,0.6799999999999999,82.08000000000001,82.08002441406254)"><g xmlns="http://www.w3.org/2000/svg" clip-rule="evenodd" fill-rule="evenodd"><path d="m168.5 100.05c-92.911 0-168.5 75.589-168.5 168.5 8.471 223.231 328.563 223.17 337-.002 0-92.909-75.589-168.498-168.5-168.498zm50.925 131.431h9.575c19.881.738 19.866 29.269 0 30h-8.251c-4.7 27.959-25.669 50.467-52.815 57.398l41.384 33.516c6.438 5.213 7.43 14.659 2.216 21.097-5.238 6.466-14.701 7.406-21.097 2.216l-69.92-56.625c-13.119-7.577-7.885-27.897 7.483-27.987h22.255c18.752 0 34.632-12.506 39.756-29.613h-62.138c-19.881-.738-19.866-29.269 0-30h59.713c-6.739-13.831-20.939-23.387-37.331-23.387h-22.255c-19.881-.738-19.866-29.269 0-30l101 .001c19.881.738 19.866 29.269 0 30h-20.575c4.989 6.971 8.768 14.865 11 23.384z" fill="#ffffff" data-original="#000000"></path><path d="m508 77.05h-191c-2.761 0-5 2.239-5 5v25h196c2.761 0 5-2.239 5-5v-20c0-2.762-2.239-5-5-5z" fill="#ffffff" data-original="#000000"></path><path d="m478 167.05c2.761 0 5-2.239 5-5v-20c0-2.761-2.239-5-5-5h-160.944c8.216 9.271 15.579 19.31 21.966 30z" fill="#ffffff" data-original="#000000"></path><path d="m508 197.05h-154.329c3.743 9.66 6.748 19.682 8.952 30h145.377c2.761 0 5-2.239 5-5v-20c0-2.762-2.239-5-5-5z" fill="#ffffff" data-original="#000000"></path><path d="m478 287.128c2.761 0 5-2.239 5-5v-20c0-2.761-2.239-5-5-5h-111.336c.589 9.927.391 20.157-.54 30z" fill="#ffffff" data-original="#000000"></path><path d="m508 317.128h-147.022c-2.605 10.317-6.022 20.314-10.175 29.922l157.195.076c2.762.001 5.002-2.238 5.002-5v-19.998c0-2.761-2.239-5-5-5z" fill="#ffffff" data-original="#000000"></path><path d="m478 377.128h-143.413c-7.046 10.741-15.104 20.76-24.039 29.922h167.452c2.761 0 5-2.239 5-5v-19.922c0-2.761-2.239-5-5-5z" fill="#ffffff" data-original="#000000"></path></g></g></svg>