<svg xmlns="http://www.w3.org/2000/svg" version="1.1" xmlns:xlink="http://www.w3.org/1999/xlink" xmlns:svgjs="http://svgjs.com/svgjs" width="512" height="512" x="0" y="0" viewBox="0 0 16.933333 16.933334" style="enable-background:new 0 0 512 512" xml:space="preserve" class=""><g transform="matrix(0.96,0,0,0.9600000000000001,0.3386316895484942,0.3385607910156274)"><g id="layer1" transform="translate(0 -280.067)"><path id="path2398" d="m10.583329 280.85576v.78703l-1.4355703-.99994c-.0442-.0306-.0966-.047-.15038-.047-.0544-.00038-.10768.016-.15244.047l-5.13871 3.57808c-.11959.0832-.14939.24748-.0667.36742l.64078.92191c.0835.12038.24888.15003.36898.0661l.64285-.44803v3.13934c0 .35287.52917.35287.52917 0v-3.5078l3.17396-2.21071 3.1755203 2.21123v3.50728c0 .35286.52917.35286.52917 0v-3.13883l.64285.44752c.11981.0828.28403.0533.36742-.0661l.64234-.92191c.0827-.11994.0529-.28419-.0667-.36742l-1.58587-1.10433v-2.26084c-.00053-.14612-.1195-.26411-.26562-.26355h-1.59913c-.14904.0136-.25205.12753-.25192.26355zm.52917.26355h1.05833v1.62884l-1.05833-.73691zm-2.1151203.0646 4.7692203 3.32022-.33796.48627-4.2808803-2.98018c-.091-.0635-.21186-.0635-.30282 0l-4.2814 2.98018-.33796-.48627zm-1.32447 4.17391c-.14611.00058-.2641.1195-.26354.26562v2.64428c-.0345.38438.56162.38438.52709 0v-2.38073h2.1171903v2.38073c0 .35312.52968.35312.52968 0v-2.64428c.000529-.14632-.11774-.26532-.26407-.26562zm7.5018703 1.90479c-.32109 0-.64193.12207-.88573.36587l-1.55133 1.55133c-.25963.24937.12477.63377.37414.37414l1.55132-1.55133c.28679-.28678.73694-.28678 1.02371 0 .14249.14248.19269.29733.18604.47956-.007.18222-.0819.39006-.21497.57877-.50574.71712-1.6386 2.35599-2.24483 3.23391-.46477.67307-1.02854 1.00098-1.77147 1.00098h-4.4979103c-.48177 0-.80645.20805-1.05265.42529l-3.52382-3.52382c-.10282-.10282-.26892-.10421-.3731 0l-1.58749999 1.58802c-.10398.10344-.10398.27172 0 .37517l4.23436999 4.2323c.10321.10259.26989.10259.3731 0l1.5875-1.58802c.1026-.10321.1026-.2699 0-.37311l-.34003-.34003c.17773-.16244.3535-.26665.68213-.26665h4.4979103c.90912 0 1.66838-.44997 2.20659-1.22938.60607-.87769 1.74037-2.51887 2.24172-3.22978.18249-.25875.30088-.55654.31213-.86454.0112-.30801-.0964-.62811-.34107-.87282-.2438-.2438-.56516-.36587-.88625-.36587zm-9.6185303 1.79989c-.98809 0-1.59957.45226-2.07946.91416-.25739.24454.11259.62911.3669.38137.44962-.43277.87649-.76636 1.71256-.76636h5.5562503c.44431 0 .79375.34943.79375.79375s-.34944.79375-.79375.79375h-2.9104203c-.3578-.005-.3578.53423 0 .52917h2.9104203c.72831 0 1.32291-.5946 1.32291-1.32292s-.5946-1.32292-1.32291-1.32292zm-3.17449 1.69757 3.85972 3.8592-1.21285 1.21285-3.85971-3.8592z" font-variant-ligatures="normal" font-variant-position="normal" font-variant-caps="normal" font-variant-numeric="normal" font-variant-alternates="normal" font-feature-settings="normal" text-indent="0" text-align="start" text-decoration-line="none" text-decoration-style="solid" text-decoration-color="rgb(0,0,0)" text-transform="none" text-orientation="mixed" white-space="normal" shape-padding="0" isolation="auto" mix-blend-mode="normal" solid-color="rgb(0,0,0)" solid-opacity="1" vector-effect="none" fill="#000000" data-original="#000000" class=""></path></g></g></svg>