<svg xmlns="http://www.w3.org/2000/svg" version="1.1" xmlns:xlink="http://www.w3.org/1999/xlink" xmlns:svgjs="http://svgjs.com/svgjs" width="512" height="512" x="0" y="0" viewBox="0 0 128 128" style="enable-background:new 0 0 512 512" xml:space="preserve" class=""><g transform="matrix(1.1,0,0,1.1,-6.4451978683471935,-6.4003376007080135)"><path d="m104.644 89.192a1.75 1.75 0 0 0 -1.222-1.631c-6.161-1.949-10.77-3.807-12.969-4.74a1.755 1.755 0 0 0 -1.368 0c-2.2.934-6.811 2.792-12.969 4.74a1.743 1.743 0 0 0 -1.116 1.07 27.355 27.355 0 0 0 -3.272-1.185 13.769 13.769 0 0 0 -5.978-25.063v-21.314a10.928 10.928 0 0 1 9.17 10.766 1.75 1.75 0 0 0 3.5 0 10.917 10.917 0 0 1 21.83-.274 1.751 1.751 0 0 0 1.749 1.7h.039a1.751 1.751 0 0 0 1.712-1.78 39.756 39.756 0 0 0 -79.5 0 1.751 1.751 0 0 0 1.712 1.78h.038a1.751 1.751 0 0 0 1.749-1.7 10.916 10.916 0 0 1 21.761-.938c0 .055.007.11.014.165a8.5 8.5 0 0 1 .057 1.047 1.75 1.75 0 0 0 3.5 0 10.928 10.928 0 0 1 9.17-10.766v21.314a13.769 13.769 0 0 0 -5.988 25.058 27.563 27.563 0 0 0 -19.781 26.4 1.751 1.751 0 0 0 1.75 1.75h51.537a1.785 1.785 0 0 0 .334-.034 1.386 1.386 0 0 0 .134-.038c.053-.015.107-.025.159-.044.014-.006.028-.013.042-.018l.023-.01c6.629-2.567 11.018-7.9 13.042-15.869a39.659 39.659 0 0 0 1.141-10.386zm-6.326-48.674a14.453 14.453 0 0 0 -20.23 2.319c-.681-7.883-2.72-19.661-8.738-26.526a36.568 36.568 0 0 1 28.968 24.207zm-59.658-3.1a14.381 14.381 0 0 0 -8.978 3.1 36.568 36.568 0 0 1 28.968-24.207c-6.01 6.857-8.052 18.614-8.736 26.5a14.379 14.379 0 0 0 -11.254-5.395zm14.872 4.515c.861-8.606 3.342-21.028 10.468-25.733 7.125 4.708 9.607 17.13 10.468 25.734a14.392 14.392 0 0 0 -20.936 0zm.184 34.111a10.284 10.284 0 1 1 10.284 10.282 10.3 10.3 0 0 1 -10.284-10.284zm10.284 13.782a24.026 24.026 0 0 1 10.958 2.653 38.112 38.112 0 0 0 1.076 7.1c1.37 5.39 3.828 9.573 7.325 12.513h-43.315a24.051 24.051 0 0 1 23.956-22.266zm36.111 8.893c-1.669 6.565-5.147 11.015-10.342 13.238-5.2-2.223-8.674-6.673-10.342-13.238a36.088 36.088 0 0 1 -1.037-8.212c5.128-1.665 9.1-3.229 11.379-4.177 2.277.947 6.249 2.511 11.379 4.177a36.1 36.1 0 0 1 -1.037 8.212z" fill="#000000" data-original="#000000"></path><path d="m86.142 96.909a1.75 1.75 0 0 0 -2.5 2.445l3.246 3.326a1.75 1.75 0 0 0 1.251.527 1.75 1.75 0 0 0 1.25-.525l6.511-6.651a1.75 1.75 0 1 0 -2.5-2.449l-5.259 5.372z" fill="#000000" data-original="#000000"></path></g></svg>