<svg xmlns="http://www.w3.org/2000/svg" version="1.1" xmlns:xlink="http://www.w3.org/1999/xlink" xmlns:svgjs="http://svgjs.com/svgjs" width="512" height="512" x="0" y="0" viewBox="0 0 682.66669 682.66669" style="enable-background:new 0 0 512 512" xml:space="preserve" class=""><g><defs id="defs1705"><clipPath clipPathUnits="userSpaceOnUse" id="clipPath1715"><path d="M 0,512 H 512 V 0 H 0 Z" id="path1713" fill="#000000" data-original="#000000" class=""></path></clipPath></defs><g id="g1707" transform="matrix(1.3333333,0,0,-1.3333333,0,682.66667)"><g id="g1709"><g id="g1711" clip-path="url(#clipPath1715)"><g id="g1717" transform="translate(355.5,202.21)"><path d="m 0,0 v 272.29 c 0,16.57 -13.43,30 -30,30 h -288 c -16.57,0 -30,-13.43 -30,-30 v -437 c 0,-16.57 13.43,-30 30,-30 h 288 c 10.74,0 20.16,5.64 25.45,14.13" style="stroke-width:15;stroke-linecap:round;stroke-linejoin:round;stroke-miterlimit:10;stroke-dasharray:none;stroke-opacity:1" id="path1719" fill="none" stroke="#000000" stroke-width="15" stroke-linecap="round" stroke-linejoin="round" stroke-miterlimit="10" stroke-dasharray="none" stroke-opacity="" data-original="#000000" class=""></path></g><g id="g1721" transform="translate(152.1572,459.5)"><path d="m 0,0 h 151.343 c 3.866,0 7,-3.134 7,-7 v -45 c 0,-3.866 -3.134,-7 -7,-7 h -244 c -3.866,0 -7,3.134 -7,7 v 45 c 0,3.866 3.134,7 7,7 H -35" style="stroke-width:15;stroke-linecap:round;stroke-linejoin:round;stroke-miterlimit:10;stroke-dasharray:none;stroke-opacity:1" id="path1723" fill="none" stroke="#000000" stroke-width="15" stroke-linecap="round" stroke-linejoin="round" stroke-miterlimit="10" stroke-dasharray="none" stroke-opacity="" data-original="#000000" class=""></path></g><g id="g1725" transform="translate(101.5,254.5)"><path d="m 0,0 h -42 c -3.866,0 -7,3.134 -7,7 v 42 c 0,3.866 3.134,7 7,7 H 0 c 3.866,0 7,-3.134 7,-7 V 7 C 7,3.134 3.866,0 0,0 Z" style="stroke-width:15;stroke-linecap:round;stroke-linejoin:round;stroke-miterlimit:10;stroke-dasharray:none;stroke-opacity:1" id="path1727" fill="none" stroke="#000000" stroke-width="15" stroke-linecap="round" stroke-linejoin="round" stroke-miterlimit="10" stroke-dasharray="none" stroke-opacity="" data-original="#000000" class=""></path></g><g id="g1729" transform="translate(52.5,355.5)"><path d="M 0,0 H 56" style="stroke-width:15;stroke-linecap:round;stroke-linejoin:round;stroke-miterlimit:10;stroke-dasharray:none;stroke-opacity:1" id="path1731" fill="none" stroke="#000000" stroke-width="15" stroke-linecap="round" stroke-linejoin="round" stroke-miterlimit="10" stroke-dasharray="none" stroke-opacity="" data-original="#000000" class=""></path></g><g id="g1733" transform="translate(202.5,254.5)"><path d="m 0,0 h -42 c -3.866,0 -7,3.134 -7,7 v 42 c 0,3.866 3.134,7 7,7 H 0 c 3.866,0 7,-3.134 7,-7 V 7 C 7,3.134 3.866,0 0,0 Z" style="stroke-width:15;stroke-linecap:round;stroke-linejoin:round;stroke-miterlimit:10;stroke-dasharray:none;stroke-opacity:1" id="path1735" fill="none" stroke="#000000" stroke-width="15" stroke-linecap="round" stroke-linejoin="round" stroke-miterlimit="10" stroke-dasharray="none" stroke-opacity="" data-original="#000000" class=""></path></g><g id="g1737" transform="translate(153.5,355.5)"><path d="M 0,0 H 56" style="stroke-width:15;stroke-linecap:round;stroke-linejoin:round;stroke-miterlimit:10;stroke-dasharray:none;stroke-opacity:1" id="path1739" fill="none" stroke="#000000" stroke-width="15" stroke-linecap="round" stroke-linejoin="round" stroke-miterlimit="10" stroke-dasharray="none" stroke-opacity="" data-original="#000000" class=""></path></g><g id="g1741" transform="translate(303.5,254.5)"><path d="m 0,0 h -42 c -3.866,0 -7,3.134 -7,7 v 42 c 0,3.866 3.134,7 7,7 H 0 c 3.866,0 7,-3.134 7,-7 V 7 C 7,3.134 3.866,0 0,0 Z" style="stroke-width:15;stroke-linecap:round;stroke-linejoin:round;stroke-miterlimit:10;stroke-dasharray:none;stroke-opacity:1" id="path1743" fill="none" stroke="#000000" stroke-width="15" stroke-linecap="round" stroke-linejoin="round" stroke-miterlimit="10" stroke-dasharray="none" stroke-opacity="" data-original="#000000" class=""></path></g><g id="g1745" transform="translate(254.5,355.5)"><path d="M 0,0 H 56" style="stroke-width:15;stroke-linecap:round;stroke-linejoin:round;stroke-miterlimit:10;stroke-dasharray:none;stroke-opacity:1" id="path1747" fill="none" stroke="#000000" stroke-width="15" stroke-linecap="round" stroke-linejoin="round" stroke-miterlimit="10" stroke-dasharray="none" stroke-opacity="" data-original="#000000" class=""></path></g><g id="g1749" transform="translate(101.5,153.5)"><path d="m 0,0 h -42 c -3.866,0 -7,3.134 -7,7 v 42 c 0,3.866 3.134,7 7,7 H 0 c 3.866,0 7,-3.134 7,-7 V 7 C 7,3.134 3.866,0 0,0 Z" style="stroke-width:15;stroke-linecap:round;stroke-linejoin:round;stroke-miterlimit:10;stroke-dasharray:none;stroke-opacity:1" id="path1751" fill="none" stroke="#000000" stroke-width="15" stroke-linecap="round" stroke-linejoin="round" stroke-miterlimit="10" stroke-dasharray="none" stroke-opacity="" data-original="#000000" class=""></path></g><g id="g1753" transform="translate(202.5,153.5)"><path d="m 0,0 h -42 c -3.866,0 -7,3.134 -7,7 v 42 c 0,3.866 3.134,7 7,7 H 0 c 3.866,0 7,-3.134 7,-7 V 7 C 7,3.134 3.866,0 0,0 Z" style="stroke-width:15;stroke-linecap:round;stroke-linejoin:round;stroke-miterlimit:10;stroke-dasharray:none;stroke-opacity:1" id="path1755" fill="none" stroke="#000000" stroke-width="15" stroke-linecap="round" stroke-linejoin="round" stroke-miterlimit="10" stroke-dasharray="none" stroke-opacity="" data-original="#000000" class=""></path></g><g id="g1757" transform="translate(101.5,52.5)"><path d="m 0,0 h -42 c -3.866,0 -7,3.134 -7,7 v 42 c 0,3.866 3.134,7 7,7 H 0 c 3.866,0 7,-3.134 7,-7 V 7 C 7,3.134 3.866,0 0,0 Z" style="stroke-width:15;stroke-linecap:round;stroke-linejoin:round;stroke-miterlimit:10;stroke-dasharray:none;stroke-opacity:1" id="path1759" fill="none" stroke="#000000" stroke-width="15" stroke-linecap="round" stroke-linejoin="round" stroke-miterlimit="10" stroke-dasharray="none" stroke-opacity="" data-original="#000000" class=""></path></g><g id="g1761" transform="translate(202.5,52.5)"><path d="m 0,0 h -42 c -3.866,0 -7,3.134 -7,7 v 42 c 0,3.866 3.134,7 7,7 H 0 c 3.866,0 7,-3.134 7,-7 V 7 C 7,3.134 3.866,0 0,0 Z" style="stroke-width:15;stroke-linecap:round;stroke-linejoin:round;stroke-miterlimit:10;stroke-dasharray:none;stroke-opacity:1" id="path1763" fill="none" stroke="#000000" stroke-width="15" stroke-linecap="round" stroke-linejoin="round" stroke-miterlimit="10" stroke-dasharray="none" stroke-opacity="" data-original="#000000" class=""></path></g><g id="g1765" transform="translate(310.5,64.0601)"><path d="m 0,0 v -4.56 c 0,-3.87 -3.13,-7 -7,-7 h -42 c -3.87,0 -7,3.13 -7,7 v 143 c 0,3.87 3.13,7 7,7 h 42 c 3.87,0 7,-3.13 7,-7 V 93.26" style="stroke-width:15;stroke-linecap:round;stroke-linejoin:round;stroke-miterlimit:10;stroke-dasharray:none;stroke-opacity:1" id="path1767" fill="none" stroke="#000000" stroke-width="15" stroke-linecap="round" stroke-linejoin="round" stroke-miterlimit="10" stroke-dasharray="none" stroke-opacity="" data-original="#000000" class=""></path></g><g id="g1769" transform="translate(288.0215,430)"><path d="m 0,0 c 0,-4.142 -3.358,-7.5 -7.5,-7.5 -4.143,0 -7.5,3.358 -7.5,7.5 0,4.142 3.357,7.5 7.5,7.5 C -3.358,7.5 0,4.142 0,0" style="fill-opacity:1;fill-rule:nonzero;stroke:none" id="path1771" fill="#000000" data-original="#000000" class=""></path></g><g id="g1773" transform="translate(258.0215,430)"><path d="m 0,0 c 0,-4.142 -3.358,-7.5 -7.5,-7.5 -4.143,0 -7.5,3.358 -7.5,7.5 0,4.142 3.357,7.5 7.5,7.5 C -3.358,7.5 0,4.142 0,0" style="fill-opacity:1;fill-rule:nonzero;stroke:none" id="path1775" fill="#000000" data-original="#000000" class=""></path></g><g id="g1777" transform="translate(228.0215,430)"><path d="m 0,0 c 0,-4.142 -3.358,-7.5 -7.5,-7.5 -4.143,0 -7.5,3.358 -7.5,7.5 0,4.142 3.357,7.5 7.5,7.5 C -3.358,7.5 0,4.142 0,0" style="fill-opacity:1;fill-rule:nonzero;stroke:none" id="path1779" fill="#000000" data-original="#000000" class=""></path></g><g id="g1781" transform="translate(490.0449,163.2251)"><path d="m 0,0 c 9.18,-15.367 14.455,-33.336 14.455,-52.537 0,-56.658 -45.931,-102.589 -102.589,-102.589 -56.658,0 -102.589,45.931 -102.589,102.589 0,56.658 45.931,102.589 102.589,102.589 25.17,0 48.223,-9.065 66.072,-24.107" style="stroke-width:15;stroke-linecap:round;stroke-linejoin:round;stroke-miterlimit:10;stroke-dasharray:none;stroke-opacity:1" id="path1783" fill="none" stroke="#000000" stroke-width="15" stroke-linecap="round" stroke-linejoin="round" stroke-miterlimit="10" stroke-dasharray="none" stroke-opacity="" data-original="#000000" class=""></path></g><g id="g1785" transform="translate(379.0029,133.5957)"><path d="m 0,0 c -6.325,-6.326 -16.582,-6.326 -22.907,0 -6.326,6.326 -6.326,16.582 0,22.908 6.325,6.326 16.582,6.326 22.907,0 C 6.326,16.582 6.326,6.326 0,0 Z" style="stroke-width:15;stroke-linecap:round;stroke-linejoin:round;stroke-miterlimit:10;stroke-dasharray:none;stroke-opacity:1" id="path1787" fill="none" stroke="#000000" stroke-width="15" stroke-linecap="round" stroke-linejoin="round" stroke-miterlimit="10" stroke-dasharray="none" stroke-opacity="" data-original="#000000" class=""></path></g><g id="g1789" transform="translate(447.7266,64.8726)"><path d="m 0,0 c -6.326,-6.326 -16.582,-6.326 -22.907,0 -6.326,6.326 -6.326,16.582 0,22.908 6.325,6.325 16.581,6.325 22.907,0 C 6.326,16.582 6.326,6.326 0,0 Z" style="stroke-width:15;stroke-linecap:round;stroke-linejoin:round;stroke-miterlimit:10;stroke-dasharray:none;stroke-opacity:1" id="path1791" fill="none" stroke="#000000" stroke-width="15" stroke-linecap="round" stroke-linejoin="round" stroke-miterlimit="10" stroke-dasharray="none" stroke-opacity="" data-original="#000000" class=""></path></g><g id="g1793" transform="translate(439.2578,148.0347)"><path d="M 0,0 -84.27,-84.27" style="stroke-width:15;stroke-linecap:round;stroke-linejoin:round;stroke-miterlimit:10;stroke-dasharray:none;stroke-opacity:1" id="path1795" fill="none" stroke="#000000" stroke-width="15" stroke-linecap="round" stroke-linejoin="round" stroke-miterlimit="10" stroke-dasharray="none" stroke-opacity="" data-original="#000000" class=""></path></g></g></g></g></g></svg>