<svg xmlns="http://www.w3.org/2000/svg" version="1.1" xmlns:xlink="http://www.w3.org/1999/xlink" xmlns:svgjs="http://svgjs.com/svgjs" width="512" height="512" x="0" y="0" viewBox="0 0 64 64" style="enable-background:new 0 0 512 512" xml:space="preserve" class=""><g><path d="m32 26c2.243 0 4-1.318 4-3h-2c0 .408-.779 1-2 1s-2-.592-2-1h-2c0 1.682 1.757 3 4 3z" fill="#000000" data-original="#000000" class=""></path><path d="m29 19a1 1 0 0 0 1-1v-1a1 1 0 0 0 -2 0v1a1 1 0 0 0 1 1z" fill="#000000" data-original="#000000" class=""></path><path d="m35 19a1 1 0 0 0 1-1v-1a1 1 0 0 0 -2 0v1a1 1 0 0 0 1 1z" fill="#000000" data-original="#000000" class=""></path><path d="m54.66 59.51-.5-2a2.018 2.018 0 0 0 -1.07-1.31l.86-18.1a2 2 0 0 0 -2-2.1h-5.87a7 7 0 0 0 -4.07-3.24l-2.16-.65a3.967 3.967 0 0 1 -2.83-3.64 9 9 0 0 0 3.98-7.47v-2h1a3.009 3.009 0 0 0 3-3v-1a3.009 3.009 0 0 0 -3-3h-1v-3a7.008 7.008 0 0 0 -7-7h-14a1 1 0 0 0 -1 1v1.31a8.689 8.689 0 0 0 4 7.3v.39h-1a3.009 3.009 0 0 0 -3 3v1a3.009 3.009 0 0 0 3 3h1v2a9 9 0 0 0 3.98 7.47 3.967 3.967 0 0 1 -2.83 3.64l-2.16.65a7 7 0 0 0 -4.07 3.24h-5.87a2 2 0 0 0 -2 2.1l.86 18.1a2.018 2.018 0 0 0 -1.07 1.31l-.5 2.01a1.982 1.982 0 0 0 .36 1.71 2 2 0 0 0 1.58.77h41.44a2 2 0 0 0 1.94-2.49zm-13.66-45.51h1a1 1 0 0 1 1 1v1a1 1 0 0 1 -1 1h-1zm-18 3h-1a1 1 0 0 1 -1-1v-1a1 1 0 0 1 1-1h1zm16.64 17.14 1.79.54a4.955 4.955 0 0 1 2.14 1.32h-5.38a5.208 5.208 0 0 0 1.45-1.86zm-18.64-29.83v-.31h13a5 5 0 0 1 5 5v2h-11.31a6.7 6.7 0 0 1 -6.69-6.69zm4 16.69v-8.43a8.563 8.563 0 0 0 2.69.43h11.31v8a7 7 0 0 1 -14 0zm3.88 8.43a8.824 8.824 0 0 0 6.24 0 5.957 5.957 0 0 0 2.69 3.91c-.67 1.51-3.08 2.66-5.81 2.66s-5.14-1.15-5.81-2.66a5.933 5.933 0 0 0 2.69-3.91zm-6.31 5.25 1.79-.54a5.208 5.208 0 0 0 1.45 1.86h-5.38a4.955 4.955 0 0 1 2.14-1.32zm29.38 3.32-.85 18h-38.2l-.85-18zm-40.67 22 .5-2h40.44l.5 2z" fill="#000000" data-original="#000000" class=""></path><path d="m32 50a4 4 0 1 0 -4-4 4 4 0 0 0 4 4zm0-6a2 2 0 1 1 -2 2 2 2 0 0 1 2-2z" fill="#000000" data-original="#000000" class=""></path></g></svg>