<svg xmlns="http://www.w3.org/2000/svg" version="1.1" xmlns:xlink="http://www.w3.org/1999/xlink" xmlns:svgjs="http://svgjs.com/svgjs" width="512" height="512" x="0" y="0" viewBox="0 0 64 64" style="enable-background:new 0 0 512 512" xml:space="preserve"><g><g><path d="m36 11h-7c-5.514 0-10 4.486-10 10v7.382c-.615.703-1 1.612-1 2.618 0 2.206 1.794 4 4 4h.202c.579 2.838 2.368 5.236 4.798 6.647v1.598l-6.544 1.87c-4.39 1.254-7.456 5.319-7.456 9.885v7c0 .553.448 1 1 1h36c.552 0 1-.447 1-1v-7c0-4.566-3.066-8.631-7.456-9.885l-6.544-1.87v-1.598c2.43-1.411 4.22-3.809 4.798-6.647h.202c2.206 0 4-1.794 4-4 0-1.005-.385-1.914-1-2.618v-8.383c0-2.443-1.763-4.483-4.084-4.915-.432-2.321-2.472-4.084-4.916-4.084zm-16 20c0-1.103.897-2 2-2v4c-1.103 0-2-.897-2-2zm16.099 14.069 2.658.76-2.757 2.757-2.312-2.312zm-5.194 7.931h2.19l.799 8h-3.79zm2.477-2h-2.764l-.735-1.469 2.117-2.117 2.117 2.117zm-5.382-2.414-2.757-2.758 2.658-.76 2.411 1.205zm-13 6.414c0-3.678 2.469-6.951 6.005-7.961l2.038-.582 4.25 4.25c.187.188.442.293.707.293.12 0 .237-.028.347-.069l.629 1.258-.882 8.811h-7.094v-5h-2v5h-4zm34 0v6h-4v-5h-2v5h-7.096l-.88-8.811.629-1.258c.11.041.227.069.347.069.265 0 .52-.105.707-.293l4.25-4.25 2.038.582c3.536 1.01 6.005 4.283 6.005 7.961zm-14-11.618-3 1.5-3-1.5v-.843c.948.298 1.955.461 3 .461s2.052-.163 3-.461zm5-10.382c0 4.411-3.589 8-8 8s-8-3.589-8-8v-5h4.615c3.185 0 6.057-1.652 7.659-4.312l3.726 3.726zm2 0v-4c1.103 0 2 .897 2 2s-.897 2-2 2zm1-13.001v7.143c-.322-.084-.653-.142-1-.142 0-.266-.105-.52-.293-.707l-5-5c-.237-.237-.578-.338-.908-.272-.329.067-.603.296-.727.608-1.063 2.655-3.597 4.371-6.457 4.371h-5.615c-.552 0-1 .447-1 1-.347 0-.678.058-1 .142v-6.142c0-4.411 3.589-8 8-8h7c1.654 0 3 1.346 3 3 0 .553.448 1 1 1 1.655 0 3 1.346 3 2.999z" fill="#000000" data-original="#000000"></path><path d="m20.196 7.02-4.469-.894-1.8-4.497c-.152-.38-.519-.629-.928-.629s-.777.249-.929.629l-1.798 4.497-4.468.894c-.362.072-.654.337-.761.69-.107.354-.011.736.25.997l2.622 2.622-.895 4.475c-.078.389.081.786.404 1.014s.751.244 1.091.04l4.485-2.692 4.485 2.691c.159.096.337.143.515.143.202 0 .404-.062.576-.183.323-.228.482-.625.404-1.014l-.895-4.475 2.622-2.622c.261-.261.357-.644.25-.997-.107-.352-.399-.617-.761-.689zm-3.903 3.273c-.236.236-.339.575-.273.903l.557 2.783-3.062-1.837c-.159-.094-.337-.142-.515-.142s-.356.048-.515.143l-3.062 1.837.557-2.783c.066-.328-.037-.667-.273-.903l-1.679-1.68 3.168-.634c.331-.066.607-.295.732-.609l1.072-2.679 1.072 2.679c.125.314.401.543.732.609l3.168.634z" fill="#000000" data-original="#000000"></path><path d="m13.485 34.857c.159.096.337.143.515.143.202 0 .404-.062.576-.183.323-.228.482-.625.404-1.014l-.895-4.475 2.622-2.622c.261-.261.357-.644.25-.997s-.399-.618-.761-.69l-4.469-.894-1.8-4.497c-.152-.379-.519-.628-.928-.628s-.777.249-.929.629l-1.798 4.497-4.468.894c-.361.072-.654.338-.761.69-.107.354-.011.736.25.997l2.622 2.622-.895 4.475c-.078.389.081.786.404 1.014.324.228.751.244 1.091.04l4.485-2.692zm-8.061-2.878.557-2.783c.066-.328-.037-.667-.273-.903l-1.679-1.679 3.168-.634c.331-.066.607-.295.732-.609l1.071-2.679 1.072 2.679c.125.314.401.543.732.609l3.168.634-1.679 1.679c-.236.236-.339.575-.273.903l.557 2.783-3.062-1.837c-.159-.094-.337-.142-.515-.142s-.356.048-.515.143z" fill="#000000" data-original="#000000"></path><path d="m58.957 7.71c-.107-.353-.399-.618-.761-.69l-4.469-.894-1.797-4.497c-.152-.38-.52-.629-.929-.629s-.776.249-.928.629l-1.8 4.497-4.469.894c-.361.072-.654.338-.761.69-.107.354-.011.736.25.997l2.622 2.622-.895 4.475c-.078.389.081.786.404 1.014.324.228.751.244 1.091.04l4.485-2.692 4.485 2.691c.159.096.337.143.515.143.202 0 .404-.062.576-.183.323-.228.482-.625.404-1.014l-.895-4.475 2.622-2.622c.261-.26.357-.643.25-.996zm-4.664 2.583c-.236.236-.339.575-.273.903l.557 2.783-3.062-1.837c-.159-.094-.337-.142-.515-.142s-.356.048-.515.143l-3.062 1.837.557-2.783c.066-.328-.037-.667-.273-.903l-1.679-1.679 3.168-.634c.331-.066.606-.295.732-.609l1.072-2.68 1.071 2.679c.125.314.401.543.732.609l3.168.634z" fill="#000000" data-original="#000000"></path><path d="m62.196 25.02-4.469-.894-1.798-4.497c-.151-.38-.519-.629-.928-.629s-.776.249-.928.629l-1.8 4.497-4.469.894c-.361.072-.654.338-.761.69-.107.354-.011.736.25.997l2.622 2.622-.895 4.475c-.078.389.081.786.404 1.014s.751.244 1.091.04l4.485-2.692 4.485 2.691c.159.096.337.143.515.143.202 0 .404-.062.576-.183.323-.228.482-.625.404-1.014l-.895-4.475 2.622-2.622c.261-.261.357-.644.25-.997-.107-.352-.399-.617-.761-.689zm-3.903 3.273c-.236.236-.339.575-.273.903l.557 2.783-3.062-1.837c-.159-.094-.337-.142-.515-.142s-.356.048-.515.143l-3.062 1.837.557-2.783c.066-.328-.037-.667-.273-.903l-1.679-1.679 3.168-.634c.331-.066.606-.295.732-.609l1.072-2.68 1.071 2.679c.125.314.401.543.732.609l3.168.634z" fill="#000000" data-original="#000000"></path></g></g></svg>