<svg width="50" height="58" viewBox="0 0 50 58" fill="none" xmlns="http://www.w3.org/2000/svg">
<path fill-rule="evenodd" clip-rule="evenodd" d="M25.7918 10.0393C31.2611 9.68745 36.5207 11.7212 40.7324 15.2281C45.4096 19.1226 49.5856 24.0944 49.9667 30.1688C50.3665 36.5395 47.1157 42.4691 42.7328 47.1097C38.2063 51.9023 32.3757 55.4341 25.7918 55.7649C18.887 56.1119 11.941 53.7966 7.05818 48.9024C2.18038 44.0131 -0.939608 36.9709 0.255492 30.1688C1.33869 24.0035 7.74123 20.9093 12.6572 17.0342C16.7069 13.842 20.6458 10.3703 25.7918 10.0393Z" fill="#FADFE9" fill-opacity="0.51"/>
<path d="M29.1684 8.15872C29.5486 8.15872 29.8571 7.85025 29.8571 7.47004C29.8571 7.08939 29.5486 6.78137 29.1684 6.78137H24.5378C24.1576 6.78137 23.8491 7.08939 23.8491 7.47004C23.8491 7.85025 24.1576 8.15872 24.5378 8.15872H25.8627C26.3016 8.15468 26.7137 8.36989 26.9612 8.73261H24.5378C24.1576 8.73261 23.8491 9.04063 23.8491 9.42128C23.8491 9.80149 24.1576 10.11 24.5378 10.11H26.9616C26.7639 10.5363 26.333 10.8063 25.8631 10.7986H24.5378C24.2576 10.7924 24.0029 10.9605 23.898 11.2205C23.7926 11.4801 23.8594 11.7783 24.0648 11.9688L27.3768 15.0952C27.6539 15.3562 28.0906 15.3436 28.3515 15.0661C28.6129 14.789 28.5999 14.3527 28.3228 14.0913L26.2416 12.0971C27.3077 11.9348 28.1749 11.1533 28.447 10.11H29.1684C29.5486 10.11 29.8571 9.80149 29.8571 9.42128C29.8571 9.04063 29.5486 8.73261 29.1684 8.73261H28.4479C28.3905 8.61783 28.3071 8.38827 28.2013 8.15872H29.1684Z" fill="#D7206A"/>
<path d="M24.8248 45.6394L24.3724 45.5134C22.1266 44.8691 19.7086 45.326 17.8529 46.7455L17.7283 46.0443C17.6969 45.864 17.5951 45.704 17.4453 45.5991C17.2956 45.4937 17.1104 45.4529 16.9302 45.4847L12.5704 46.2469C12.1956 46.3124 11.9449 46.6693 12.0104 47.0441L13.6837 56.6111C13.715 56.7913 13.8164 56.9514 13.9661 57.0563C14.1154 57.1612 14.3006 57.2025 14.4808 57.1707L18.8402 56.4085C19.215 56.3425 19.4656 55.9861 19.4002 55.6113L19.3311 55.214L20.2789 54.4447C20.6466 54.1389 21.1187 53.9878 21.5958 54.0232L28.7053 54.5433C28.7206 54.5442 28.7358 54.5446 28.7511 54.5451C30.3678 54.5514 31.9442 54.0402 33.2503 53.087C33.2767 53.0682 33.3014 53.0467 33.3247 53.0238L41.7932 44.7324C42.0533 44.4777 42.0703 44.0639 41.8313 43.7891C40.801 42.5991 39.0175 42.4283 37.78 43.4012L34.008 46.2218C33.1651 45.2691 31.8877 44.8216 30.6346 45.0409L27.4584 45.5977V43.2811H28.1624C29.9217 43.2865 31.6111 42.5915 32.8571 41.3491C34.1035 40.1072 34.8038 38.42 34.8043 36.6607V35.2376C34.807 35.0574 34.737 34.8834 34.6102 34.7556C34.4833 34.6274 34.3098 34.5561 34.1295 34.5579H32.7064C30.5575 34.5579 28.6062 35.5721 27.4584 37.1566V31.4589H28.1624C29.9231 31.4616 31.6125 30.7644 32.8584 29.5206C34.1044 28.2764 34.8043 26.5879 34.8043 24.8272V23.4042C34.8065 23.2253 34.7361 23.0527 34.6088 22.9267C34.4819 22.8002 34.3089 22.7316 34.1295 22.7357H32.7064C30.5575 22.7357 28.6062 23.7391 27.4584 25.3236V22.0672C33.1974 21.7677 37.9114 16.9362 37.9114 11.0399C37.9109 5.04495 33.127 0.146227 27.1338 0.00320182C21.1407 -0.139823 16.1285 4.5262 15.8429 10.514C15.5569 16.5018 20.1014 21.6238 26.0811 22.0528V25.3146C25.8515 25.0752 25.6807 24.8456 25.4624 24.6291C24.2348 23.4064 22.5723 22.7218 20.8403 22.7249C20.8197 22.7249 20.7914 22.7357 20.7712 22.7357H19.3482C18.9675 22.7357 18.6209 23.0235 18.6209 23.4037V24.8268C18.6205 28.4975 21.6446 31.4589 25.3149 31.4589H26.0811V37.148C25.8515 36.9086 25.6807 36.6791 25.4624 36.4625C24.2357 35.238 22.5732 34.5516 20.8403 34.553C20.8197 34.553 20.7914 34.5579 20.7712 34.5579H19.3482C18.9617 34.5503 18.6393 34.8511 18.6205 35.2371V36.6602C18.6205 40.3309 21.6446 43.2811 25.3149 43.2811H26.0811V45.7928C25.657 45.8076 25.2328 45.756 24.8248 45.6394ZM14.9211 55.6951L13.485 47.4848L16.4881 46.9598L17.9242 55.1701L14.9211 55.6951ZM30.8556 46.3962C31.8523 46.2236 32.8454 46.7173 33.3099 47.6153L27.5562 48.6219C27.1814 48.6873 26.9307 49.0442 26.9962 49.419C27.0621 49.7934 27.4185 50.0441 27.7934 49.9786L34.3286 48.8353C34.7034 48.7698 34.9536 48.4129 34.8881 48.0386C34.8505 47.8238 34.794 47.6131 34.7187 47.4086L38.6108 44.4975C38.6158 44.4939 38.6202 44.4903 38.6252 44.4863C39.0924 44.1159 39.7286 44.0419 40.2679 44.2948L32.3962 51.9948C31.3461 52.7472 30.0867 53.1516 28.795 53.1521H28.7806L21.6948 52.6414C20.8649 52.5799 20.0436 52.8436 19.4042 53.3762L19.0581 53.6587L18.1251 48.3246C19.6683 46.8087 21.9083 46.2407 23.9877 46.8379L24.4321 46.9643C25.2283 47.1894 26.0645 47.2333 26.8796 47.0916L30.8556 46.3962ZM32.706 35.9352H33.4269V36.6607C33.4269 38.0551 32.8719 39.392 31.8837 40.3757C30.896 41.3599 29.5567 41.9096 28.1624 41.9037H27.4584V41.2043C27.4531 39.809 28.0036 38.4693 28.9882 37.4803C29.9728 36.4916 31.3107 35.9357 32.706 35.9352ZM32.706 24.113H33.4269V24.8272C33.4274 26.223 32.8728 27.5613 31.8851 28.5468C30.8973 29.5327 29.5576 30.0847 28.1624 30.0815H27.4584V29.3709C27.4535 27.9769 28.0045 26.6386 28.9896 25.6518C29.9742 24.6649 31.3116 24.1112 32.706 24.113ZM27.4584 19.4044C29.2106 19.2793 30.8794 18.6045 32.2258 17.476L33.1301 18.3804C31.5407 19.7451 29.5491 20.554 27.4584 20.684V19.4044ZM26.8532 18.0513C22.9812 18.0513 19.8422 14.9123 19.8418 11.0399C19.8418 7.16791 22.9807 4.02898 26.8532 4.02853C30.7252 4.02853 33.8645 7.16746 33.8645 11.0394C33.8605 14.9101 30.7238 18.0468 26.8532 18.0513ZM32.2657 4.63829C30.9126 3.48961 29.2286 2.80228 27.4584 2.6754V1.39579C29.5671 1.52671 31.5743 2.34854 33.17 3.73396L32.2657 4.63829ZM26.0811 2.6884C24.3451 2.84801 22.7032 3.547 21.3846 4.68671L20.4803 3.78283C22.0414 2.40683 24.0066 1.57379 26.0811 1.40879V2.6884ZM20.417 5.66727C19.2845 7.01905 18.6088 8.69456 18.4873 10.4543H17.2077C17.3337 8.35605 18.1434 6.35728 19.5132 4.76293L20.417 5.66727ZM18.503 11.8317C18.664 13.535 19.3441 15.1482 20.4516 16.4524L19.5477 17.3563C18.2044 15.809 17.3902 13.8735 17.2234 11.8317H18.503ZM21.4245 17.4272C22.7364 18.5471 24.363 19.2336 26.0811 19.3914V20.671C24.0245 20.5074 22.0751 19.6873 20.5202 18.3315L21.4245 17.4272ZM34.1107 17.4128L33.2064 16.5085C34.342 15.1948 35.0401 13.5601 35.2033 11.8317H36.4834C36.3143 13.8991 35.4822 15.8566 34.1107 17.4128ZM36.4991 10.4543H35.219C35.0957 8.66945 34.4021 6.97153 33.2409 5.61032L34.1452 4.70644C35.5436 6.30931 36.3713 8.33094 36.4991 10.4543ZM19.9978 24.8272V24.113H20.778C23.6945 24.1 26.069 26.4548 26.0811 29.3709V30.0815H25.3149C22.4041 30.0815 19.9978 27.738 19.9978 24.8272ZM19.9978 36.6611V35.9352H20.778C23.6968 35.9276 26.0699 38.2855 26.0811 41.2043V41.9037H25.3149C22.4041 41.9037 19.9978 39.5714 19.9978 36.6607V36.6611Z" fill="#D7206A"/>
</svg>
