<svg xmlns="http://www.w3.org/2000/svg" version="1.1" xmlns:xlink="http://www.w3.org/1999/xlink" xmlns:svgjs="http://svgjs.com/svgjs" width="512" height="512" x="0" y="0" viewBox="0 0 60 60" style="enable-background:new 0 0 512 512" xml:space="preserve" class=""><g transform="matrix(0.8700000000000001,0,0,0.8700000000000001,3.899999999999995,3.8997583662369237)"><path xmlns="http://www.w3.org/2000/svg" d="M51.138,7.068A33.652,33.652,0,0,0,30,0,33.65,33.65,0,0,0,8.862,7.068C3.147,11.677,0,17.828,0,24.387v.192a1.763,1.763,0,0,0,.941,1.537,2.18,2.18,0,0,0,2.175-.037A13.092,13.092,0,0,1,10,24a12.85,12.85,0,0,1,7.722,2.524,2.136,2.136,0,0,0,2.554.105A18.213,18.213,0,0,1,29,24.04V46H25.83a5.8,5.8,0,0,1-4.046-1.632,8.673,8.673,0,0,0-2.625-1.751,7,7,0,1,0-7.975.244A9,9,0,0,0,6,51v6a3,3,0,0,0,3,3h9a3,3,0,0,0,3-3V53h8v2a1,1,0,0,0,2,0V52.949a3.483,3.483,0,0,0,0-6.9V24.04a18.2,18.2,0,0,1,8.724,2.589,2.138,2.138,0,0,0,2.554-.105A12.853,12.853,0,0,1,50,24a13.1,13.1,0,0,1,6.885,2.079,2.185,2.185,0,0,0,2.174.037A1.763,1.763,0,0,0,60,24.579v-.192C60,17.828,56.853,11.677,51.138,7.068ZM10,22a14.851,14.851,0,0,0-7.93,2.374A.157.157,0,0,1,2,24.39v0c0-5.942,2.883-11.54,8.118-15.762A30.489,30.489,0,0,1,24.72,2.4c-4,3.89-6.7,12.121-6.719,21.874A15.544,15.544,0,0,0,10,22Zm0,15a5,5,0,1,1,5,5A5.006,5.006,0,0,1,10,37ZM32,49.5A1.5,1.5,0,0,1,30.5,51H21V50a1,1,0,0,0-2,0v7a1,1,0,0,1-1,1H13V50a1,1,0,0,0-2,0v8H9a1,1,0,0,1-1-1V51a7.008,7.008,0,0,1,7-7h1.17A6.124,6.124,0,0,1,20.4,45.808,7.791,7.791,0,0,0,25.83,48H30.5A1.5,1.5,0,0,1,32,49.5ZM30,22a21.373,21.373,0,0,0-10,2.446v-.059C20,12.252,24.58,2,30,2S40,12.252,40,24.387v.059A21.376,21.376,0,0,0,30,22Zm28,2.39a.143.143,0,0,1-.069-.016A14.866,14.866,0,0,0,50,22a15.541,15.541,0,0,0-8,2.278C41.979,14.525,39.277,6.294,35.28,2.4a30.493,30.493,0,0,1,14.6,6.221C55.117,12.847,58,18.445,58,24.387Z" fill="#d7206a" data-original="#000000" class=""></path><path xmlns="http://www.w3.org/2000/svg" d="M36,51v6a3,3,0,0,0,3,3H51a3,3,0,0,0,3-3V51a9,9,0,0,0-5.184-8.139,7,7,0,1,0-7.632,0A9,9,0,0,0,36,51Zm4-14a5,5,0,1,1,5,5A5.006,5.006,0,0,1,40,37Zm5,7a7.009,7.009,0,0,1,7,7v6a1,1,0,0,1-1,1H49V50a1,1,0,0,0-2,0v8H43V50a1,1,0,0,0-2,0v8H39a1,1,0,0,1-1-1V51A7.009,7.009,0,0,1,45,44Z" fill="#d7206a" data-original="#000000" class=""></path></g></svg>