<svg xmlns="http://www.w3.org/2000/svg" version="1.1" xmlns:xlink="http://www.w3.org/1999/xlink" xmlns:svgjs="http://svgjs.com/svgjs" width="512" height="512" x="0" y="0" viewBox="0 0 511.99946 511" style="enable-background:new 0 0 512 512" xml:space="preserve" class=""><g transform="matrix(0.8800000000000001,0,0,0.8800000000000001,30.72003295898432,29.159620971679658)"><path xmlns="http://www.w3.org/2000/svg" d="m207.542969 293.835938c0 11.496093 9.351562 20.851562 20.851562 20.851562 11.496094 0 20.851563-9.355469 20.851563-20.851562 0-11.5-9.355469-20.855469-20.851563-20.855469-11.5 0-20.851562 9.355469-20.851562 20.855469zm26.703125 0c0 3.222656-2.628906 5.851562-5.851563 5.851562-3.226562 0-5.851562-2.628906-5.851562-5.851562 0-3.226563 2.625-5.851563 5.851562-5.851563 3.222657 0 5.851563 2.625 5.851563 5.851563zm0 0" fill="#d7206a" data-original="#000000" class=""></path><path xmlns="http://www.w3.org/2000/svg" d="m298.414062 17.886719h-4.023437c-1.40625-9.8125-9.847656-17.386719-20.042969-17.386719h-91.90625c-10.195312 0-18.636718 7.574219-20.042968 17.386719h-4.4375c-19.542969 0-35.445313 15.902343-35.445313 35.445312v34.550781h-93.015625c-16.265625 0-29.5 13.234376-29.5 29.5v306.234376c0 16.265624 13.234375 29.503906 29.5 29.503906h188.378906c-3.761718 7.496094-3.066406 17.019531 2.941406 24.039062 7.851563 9.164063 21.636719 10.265625 30.839844 2.382813l68.148438-58.367188 53.167968 57.316407c8.3125 8.964843 22.320313 9.363281 31.136719.949218l60.75-57.972656 15.863281 15.875c6.265626 6.269531 17.019532 2.84375 18.5-5.902344l12.617188-74.425781c1.25-7.382813-5.160156-13.851563-12.59375-12.605469l-42.460938 7.167969v-138.207031c0-4.144532-3.359374-7.5-7.5-7.5-4.144531 0-7.503906 3.355468-7.503906 7.5v62.167968h-165.070312c-10.445313 0-18.945313 8.496094-18.945313 18.941407 0 16.199219-13.175781 29.375-29.375 29.375s-29.375-13.175781-29.375-29.375c0-10.445313-8.5-18.941407-18.945312-18.941407h-165.074219v-158.15625c0-7.996093 6.503906-14.5 14.5-14.5h397.789062c7.992188 0 14.5 6.503907 14.5 14.5v60.984376c0 4.140624 3.355469 7.5 7.5 7.5 4.144532 0 7.5-3.359376 7.5-7.5v-60.984376c0-16.285156-13.25-29.5-29.5-29.5h-93.429687v-34.550781c0-19.542969-15.902344-35.445312-35.445313-35.445312zm187.34375 403.269531-15.464843-15.476562c-2.878907-2.878907-7.535157-2.9375-10.484375-.121094l-66.054688 63.03125c-2.800781 2.671875-7.195312 2.488281-9.777344-.300782l-58.070312-62.601562c-2.734375-2.949219-7.316406-3.214844-10.378906-.59375l-73.625 63.054688c-2.894532 2.476562-7.222656 2.128906-9.6875-.75-2.464844-2.878907-2.144532-7.210938.75-9.6875l7.464844-6.398438s76.640624-65.636719 76.644531-65.636719c2.84375-2.433593 7.066406-2.097656 9.511719.539063l57.550781 62.042968c2.851562 3.074219 7.660156 3.207032 10.679687.328126l55.027344-52.511719c2.460938-2.347657 2.324219-5.339844 2.324219-5.339844.023437-2.019531-.769531-3.960937-2.195313-5.390625-10.425781-10.433594-6.777344-6.78125-14.882812-14.890625 6.074218-1.027344 54.433594-9.1875 61.003906-10.296875zm-305.683593-130.617188c2.175781 0 3.941406 1.769532 3.941406 3.941407 0 24.46875 19.90625 44.378906 44.378906 44.378906 24.46875 0 44.375-19.910156 44.375-44.378906 0-2.171875 1.769531-3.941407 3.941407-3.941407h165.074218v63.570313l-16.976562 2.867187c-8.746094 1.472657-12.175782 12.230469-5.910156 18.5l15.035156 15.042969-43.972656 41.960938-52.378907-56.464844c-7.980469-8.601563-21.351562-9.347656-30.261719-1.738281l-74.542968 63.839844h-203.277344c-7.996094 0-14.5-6.503907-14.5-14.5v-133.078126zm-42.558594-237.207031c0-11.273437 9.171875-20.445312 20.445313-20.445312h4.433593c1.410157 9.816406 9.847657 17.390625 20.046875 17.390625h28.449219c4.144531 0 7.5-3.359375 7.5-7.5 0-4.144532-3.355469-7.5-7.5-7.5h-28.449219c-2.910156 0-5.273437-2.367188-5.273437-5.277344v-9.226562c0-2.90625 2.363281-5.273438 5.273437-5.273438h91.90625c2.90625 0 5.273438 2.367188 5.273438 5.273438v9.226562c0 2.910156-2.367188 5.277344-5.273438 5.277344h-28.453125c-4.144531 0-7.5 3.355468-7.5 7.5 0 4.140625 3.355469 7.5 7.5 7.5h28.453125c10.195313 0 18.636719-7.574219 20.042969-17.390625h4.023437c11.269532 0 20.441407 9.171875 20.441407 20.445312v34.550781h-181.339844zm0 0" fill="#d7206a" data-original="#000000" class=""></path></g></svg>