<svg xmlns="http://www.w3.org/2000/svg" version="1.1" xmlns:xlink="http://www.w3.org/1999/xlink" xmlns:svgjs="http://svgjs.com/svgjs" width="512" height="512" x="0" y="0" viewBox="0 0 682.667 682.667" style="enable-background:new 0 0 512 512" xml:space="preserve" class=""><g><defs><clipPath id="a" clipPathUnits="userSpaceOnUse"><path d="M0 512h512V0H0Z" fill="#000000" data-original="#000000"></path></clipPath></defs><g clip-path="url(#a)" transform="matrix(1.33333 0 0 -1.33333 0 682.667)"><path d="M0 0c1.316-18.464 16.554-33.246 35.049-34.038 10.133-.434 19.392 3.237 26.285 9.481v-71.101h-163.936c-15 0-27.16 12.16-27.16 27.161V95.438H61.334V29.945c-6.525 5.904-15.171 9.508-24.671 9.508C15.474 39.453-1.534 21.516 0 0Z" style="stroke-width:20;stroke-linecap:round;stroke-linejoin:round;stroke-miterlimit:10;stroke-dasharray:none;stroke-opacity:1" transform="translate(194.665 105.658)" fill="none" stroke="#000000" stroke-width="20" stroke-linecap="round" stroke-linejoin="round" stroke-miterlimit="10" stroke-dasharray="none" stroke-opacity="" data-original="#000000" class=""></path><path d="M0 0h25.789c15 0 27.16 12.16 27.16 27.16v163.936H-13.88c4.967 6.667 7.73 15.072 7.202 24.139-1.064 18.295-15.811 33.216-34.094 34.475-21.48 1.478-39.365-15.508-39.365-36.672a36.593 36.593 0 0 1 7.266-21.942h-65.275V125.6a36.65 36.65 0 0 1-26.379 9.47c-18.492-.837-33.692-15.652-34.964-34.118-1.48-21.48 15.508-39.365 36.672-39.365 9.494 0 18.147 3.601 24.671 9.51V0h49.786" style="stroke-width:20;stroke-linecap:round;stroke-linejoin:round;stroke-miterlimit:10;stroke-dasharray:none;stroke-opacity:1" transform="translate(394.147 10.002)" fill="none" stroke="#000000" stroke-width="20" stroke-linecap="round" stroke-linejoin="round" stroke-miterlimit="10" stroke-dasharray="none" stroke-opacity="" data-original="#000000" class=""></path><path d="m0 0 115.919-115.919-47.254-47.253c-1.207 8.218-5.194 16.108-11.969 22.145-13.679 12.19-34.655 12.326-48.479.3-16.252-14.137-16.893-38.811-1.924-53.781a36.601 36.601 0 0 1 20.657-10.379l-46.156-46.156-48.208 48.207c-.433-8.788-4.001-17.447-10.711-24.157-14.361-14.361-37.687-14.327-52.088.074-14.401 14.401-14.434 37.727-.074 52.087 6.71 6.71 15.37 10.278 24.165 10.705l-48.208 48.208L-38.411 0C-27.805 10.606-10.607 10.606 0 0Z" style="stroke-width:20;stroke-linecap:round;stroke-linejoin:round;stroke-miterlimit:10;stroke-dasharray:none;stroke-opacity:1" transform="translate(275.205 494.045)" fill="none" stroke="#000000" stroke-width="20" stroke-linecap="round" stroke-linejoin="round" stroke-miterlimit="10" stroke-dasharray="none" stroke-opacity="" data-original="#000000" class=""></path><path d="M0 0v0" style="stroke-width:20;stroke-linecap:round;stroke-linejoin:round;stroke-miterlimit:10;stroke-dasharray:none;stroke-opacity:1" transform="translate(350.418 10.002)" fill="none" stroke="#000000" stroke-width="20" stroke-linecap="round" stroke-linejoin="round" stroke-miterlimit="10" stroke-dasharray="none" stroke-opacity="" data-original="#000000" class=""></path></g></g></svg>