<svg xmlns="http://www.w3.org/2000/svg" version="1.1" xmlns:xlink="http://www.w3.org/1999/xlink" xmlns:svgjs="http://svgjs.com/svgjs" width="512" height="512" x="0" y="0" viewBox="0 0 2000 2000" style="enable-background:new 0 0 512 512" xml:space="preserve" class=""><g><g><path d="m933.72 650.68c124.84 0 226.4-101.56 226.4-226.4s-101.56-226.4-226.4-226.4-226.4 101.56-226.4 226.4 101.56 226.4 226.4 226.4zm0-413.79c103.33 0 187.39 84.06 187.39 187.39s-84.06 187.39-187.39 187.39-187.39-84.06-187.39-187.39 84.06-187.39 187.39-187.39z" fill="#000000" data-original="#000000"></path><path d="m1476.55 1105.29c-3.84 0-7.63.18-11.38.51 9.56-26.71 7.51-57.33-8.24-83.45l-.32-.53c-.06-.11-.14-.2-.21-.31l-203.98-315.9c-36.1-64.19-106.12-61.13-129.2-60.12-.03 0-.05.01-.08.01-.92.01-1.83.03-2.73.06-.54-.05-1.08-.08-1.64-.08-26.3 0-45.2 8.71-65.2 17.94-27.26 12.58-58.17 26.83-122.84 26.83-64.68 0-95.58-14.25-122.84-26.83-19.79-9.13-38.51-17.74-64.39-17.92-22.66-.99-90.35-3.9-126.99 56.42-.99.98-1.89 2.07-2.68 3.28l-202.22 313.16c-.96.99-1.83 2.09-2.59 3.31l-.39.65c-27.84 46.17-12.92 106.38 33.26 134.22 15.43 9.3 32.74 14.07 50.32 14.07 7.7 0 15.46-.92 23.13-2.77 23.87-5.77 44.31-20 57.99-40.23.52-.54 1.02-1.11 1.49-1.72l131.88-171.08-82.37 420.57c-.26.71-.49 1.44-.67 2.19-.98 4.1-1.47 8.31-1.47 12.52 0 29.84 24.28 54.11 54.11 54.11.05 0 .1-.01.16-.01.05 0 .1.01.16.01h38.35v238.01.05.81c0 65.64 53.4 119.05 119.05 119.05 31.54 0 61.26-12.21 83.69-34.39 6.01-5.94 11.3-12.41 15.85-19.31 4.55 6.9 9.84 13.37 15.84 19.31 22.43 22.17 52.15 34.39 83.69 34.39 65.64 0 119.05-53.41 119.05-119.05 0-.25 0-.5 0-.76 0-.03 0-.07 0-.1v-238.01h38.34c29.84 0 54.11-24.28 54.11-54.11 0-.73-.03-1.45-.06-2.18.11-1.66.04-3.36-.3-5.08l-83.45-426.09 129.96 168.59c13.65 21.44 34.71 36.52 59.47 42.51 4.81 1.16 9.66 1.96 14.5 2.39-10.38 18.1-16.49 38.95-16.96 61.15v.05.14c-.02.85-.03 1.7-.03 2.55 0 .22.03.43.03.64v547.84c0 10.77 8.73 19.5 19.51 19.5s19.5-8.73 19.5-19.5v-550.88c1.27-48.43 41.06-87.44 89.79-87.44 49.53 0 89.83 40.3 89.83 89.83 0 10.77 8.73 19.51 19.51 19.51s19.5-8.73 19.5-19.51c0-71.02-57.8-128.82-128.84-128.82zm-642.54 657.82c-44.13 0-80.04-35.91-80.04-80.04v-.52c0-.06-.01-.13-.01-.19 0-.05.01-.1.01-.14v-238.02h160.07v238.62c0 .22.03.44.03.66-.01.17-.03.34-.03.52-.5 43.62-36.41 79.11-80.03 79.11zm279.12-80.71c0 .11-.01.21-.01.31v.35c0 44.13-35.91 80.04-80.04 80.04-43.63 0-79.53-35.49-80.03-79.11 0-.18-.03-.34-.03-.52.01-.22.03-.44.03-.66v-238.61h160.07v238.01c0 .07.01.13.01.19zm210.07-578.67c-.14-.23-.31-.45-.47-.67-.23-.34-.45-.69-.7-1.01l-179.21-232.48c-3.4-6.37-10.15-10.41-17.49-10.29-4.18-.01-8.39 1.29-11.96 4.04-7.04 5.43-9.34 14.71-6.23 22.59l97.65 498.55c.09.72.21 1.45.38 2.17.27 1.12.4 2.29.4 3.46 0 8.33-6.78 15.1-15.1 15.1h-513.86c-.05 0-.1.01-.16.01-.05 0-.1-.01-.16-.01-8.33 0-15.1-6.78-15.1-15.1 0-.53.04-1.05.09-1.57.3-.87.56-1.75.74-2.68l98.58-503.32c2.07-10.57-4.82-20.82-15.39-22.89-1.46-.29-2.9-.38-4.33-.34-5.91-.06-11.77 2.54-15.65 7.57l-179.27 232.56c-1.38 1.22-2.6 2.66-3.62 4.3-16.85 27.24-52.88 35.95-80.32 19.41-26.87-16.2-36.13-50.63-21.53-77.95.59-.69 1.15-1.42 1.66-2.2l201.96-312.76c1.54-1.4 2.88-3.06 3.94-4.98 21.52-38.83 61.42-42.18 93.78-40.77.14.01.28-.01.42 0 .14 0 .28.02.43.02 17.74 0 30.79 6.02 48.86 14.35 29.38 13.55 65.94 30.42 139.18 30.42 1.67 0 3.3-.02 4.93-.04.24.01.47.04.71.04 73.24 0 109.8-16.86 139.18-30.42 18.07-8.33 31.12-14.35 48.86-14.35.13 0 .26-.02.39-.02h.13c32.36-1.41 72.26 1.94 93.78 40.77.2.37.42.73.65 1.08.01.02.02.03.03.05l.02.03c.01.01.02.02.02.04l204.17 316.19c16.61 27.73 7.63 63.82-20.07 80.52-27.44 16.52-63.46 7.82-80.32-19.42z" fill="#000000" data-original="#000000"></path></g></g></svg>