<svg xmlns="http://www.w3.org/2000/svg" version="1.1" xmlns:xlink="http://www.w3.org/1999/xlink" xmlns:svgjs="http://svgjs.com/svgjs" width="512" height="512" x="0" y="0" viewBox="0 0 511.5 511.5" style="enable-background:new 0 0 512 512" xml:space="preserve" class=""><g><g><path d="m388.25 269h47.5v-15h-32.5v-15h32.5v-15h-32.5v-15h32.5v-15h-47.5z" fill="#000000" data-original="#000000" class=""></path><path d="m171.25 246.5c0-12.407-10.093-22.5-22.5-22.5h-10c-4.136 0-7.5-3.364-7.5-7.5s3.364-7.5 7.5-7.5h29v-15h-29c-12.407 0-22.5 10.093-22.5 22.5s10.093 22.5 22.5 22.5h10c4.136 0 7.5 3.364 7.5 7.5s-3.364 7.5-7.5 7.5h-29v15h29c12.407 0 22.5-10.093 22.5-22.5z" fill="#000000" data-original="#000000" class=""></path><path d="m345.75 209c6.893 0 12.5 5.607 12.5 12.5h15c0-15.164-12.337-27.5-27.5-27.5s-27.5 12.336-27.5 27.5v20c0 15.164 12.337 27.5 27.5 27.5s27.5-12.336 27.5-27.5h-15c0 6.893-5.607 12.5-12.5 12.5s-12.5-5.607-12.5-12.5v-20c0-6.893 5.607-12.5 12.5-12.5z" fill="#000000" data-original="#000000" class=""></path><path d="m185.75 254v15h46v-15h-15.5v-45h15.5v-15h-46v15h15.5v45z" fill="#000000" data-original="#000000" class=""></path><path d="m290.622 269h12.628v-75.5h-15v43.72l-27.372-43.22h-12.628v75.5h15v-43.72z" fill="#000000" data-original="#000000" class=""></path><path d="m15.25 201.5h15v310h-15z" fill="#000000" data-original="#000000" class=""></path><path d="m503.75 99c-36.604 0-54.398-4.735-73.239-9.748-15.241-4.055-31.001-8.249-56.706-9.708l-.85 14.976c24.177 1.373 38.517 5.188 53.699 9.228 17.674 4.702 35.912 9.554 69.596 10.184v170.079h15v-185.011z" fill="#000000" data-original="#000000" class=""></path><path d="m496.25 398.93c-31.63-.602-48.233-5.02-65.739-9.678-18.944-5.04-38.532-10.252-77.097-10.252-19.579 0-35.799 1.309-51.047 4.119l2.719 14.752c14.328-2.641 29.685-3.871 48.328-3.871 36.604 0 54.399 4.735 73.239 9.748 18.944 5.04 38.533 10.252 77.097 10.252h7.5v-114.989h-15z" fill="#000000" data-original="#000000" class=""></path><path d="m276.318 389.252c-18.841 5.013-36.636 9.748-73.24 9.748-36.601 0-54.396-4.735-73.235-9.748-17.673-4.702-35.913-9.552-69.593-10.182v-284.998c31.621.603 48.232 5.018 65.736 9.676 18.943 5.04 38.53 10.252 77.093 10.252 38.564 0 58.153-5.212 77.096-10.252 18.84-5.013 36.636-9.748 73.239-9.748 1.673 0 3.307.01 4.905.03l.184-14.999c-1.657-.021-3.354-.031-5.089-.031-38.564 0-58.153 5.212-77.097 10.252-18.839 5.013-36.635 9.748-73.238 9.748-36.601 0-54.396-4.735-73.235-9.748-17.674-4.702-35.914-9.552-69.594-10.182v-11.59c9.102-6.848 15-17.737 15-29.98 0-20.678-16.822-37.5-37.5-37.5s-37.5 16.822-37.5 37.5c0 12.242 5.898 23.131 15 29.98v119.02h15v-112.255c2.424.494 4.932.755 7.5.755s5.076-.261 7.5-.755v437.255h15v-117.428c31.621.603 48.232 5.018 65.736 9.676 18.943 5.04 38.53 10.252 77.093 10.252 38.565 0 58.153-5.212 77.096-10.252 3.486-.927 7.091-1.887 10.733-2.788l-3.604-14.561c-3.769.933-7.438 1.909-10.986 2.853zm-238.568-329.252c-12.407 0-22.5-10.093-22.5-22.5s10.093-22.5 22.5-22.5 22.5 10.093 22.5 22.5-10.093 22.5-22.5 22.5z" fill="#000000" data-original="#000000" class=""></path><path d="m117.75 284h15v15h-15z" fill="#000000" data-original="#000000" class=""></path><path d="m147.75 284h260v15h-260z" fill="#000000" data-original="#000000" class=""></path><path d="m422.75 284h15v15h-15z" fill="#000000" data-original="#000000" class=""></path><path d="m100.25 122h15v15h-15z" fill="#000000" data-original="#000000" class=""></path><path d="m100.25 172h15v15h-15z" fill="#000000" data-original="#000000" class=""></path><path d="m125.25 147h15v15h-15z" fill="#000000" data-original="#000000" class=""></path><path d="m75.25 147h15v15h-15z" fill="#000000" data-original="#000000" class=""></path><path d="m441.25 313h15v15h-15z" fill="#000000" data-original="#000000" class=""></path><path d="m441.25 363h15v15h-15z" fill="#000000" data-original="#000000" class=""></path><path d="m466.25 338h15v15h-15z" fill="#000000" data-original="#000000" class=""></path><path d="m416.25 338h15v15h-15z" fill="#000000" data-original="#000000" class=""></path></g></g></svg>